<svg width="96" height="96" viewBox="0 0 96 96" fill="none" xmlns="http://www.w3.org/2000/svg">
<rect width="96" height="96" rx="19.2" fill="#D3E8FF"/>
<g clip-path="url(#clip0_1_708)">
<path d="M13.2326 45.7523C7.33409 36.87 11.5376 32.2327 13.6006 26.4419" stroke="#2D64A2" stroke-width="2.5" stroke-linecap="round" stroke-linejoin="round"/>
<path d="M80.6052 45.7523C85.5351 36.0971 82.736 32.2327 80.2371 26.4419" stroke="#2D64A2" stroke-width="2.5" stroke-linecap="round" stroke-linejoin="round"/>
<path d="M33.7078 49.0861V48.9823C33.7078 43.9066 36.7878 39.7885 40.5845 39.7885C44.3813 39.7885 47.4613 43.9066 47.4613 48.9823C47.4613 43.9066 50.5413 39.7885 54.338 39.7885C58.1347 39.7885 61.2147 43.9066 61.2147 48.9823V49.0976" stroke="#2D64A2" stroke-width="2.5" stroke-linejoin="round"/>
<path d="M23.1021 47.9325C23.1409 47.2866 23.1893 46.6406 23.2571 46.0061C23.4992 43.5029 25.0586 41.6572 26.8892 41.6572C30.221 41.6572 32.9814 44.9448 33.5916 49.2937" stroke="#2D64A2" stroke-width="2.5" stroke-linejoin="round"/>
<path d="M14.4723 47.4365C14.5304 45.337 14.6951 43.5375 14.9372 42.3839C15.2278 41.0112 16.0511 40.1229 17.0874 40.2037C18.947 40.3421 20.487 42.6608 21.5621 44.518C22.1142 45.4754 22.5404 46.629 22.8309 48.0478" stroke="#2D64A2" stroke-width="2.5" stroke-linejoin="round"/>
<path d="M72.0916 48.0478C72.3821 46.629 72.7986 45.4754 73.3604 44.518C74.4355 42.6723 75.9755 40.3537 77.8351 40.2037C78.8715 40.1229 79.6947 41.0112 79.9853 42.3839C80.2274 43.5375 80.3921 45.337 80.4502 47.4249" stroke="#2D64A2" stroke-width="2.5" stroke-linejoin="round"/>
<path d="M61.3213 49.2937C61.9218 44.9448 64.6918 41.6456 68.0236 41.6456C69.8542 41.6456 71.4136 43.5028 71.6557 45.9945C71.7138 46.629 71.7719 47.275 71.8107 47.9325" stroke="#2D64A2" stroke-width="2.5" stroke-linejoin="round"/>
<path d="M72.0916 48.0479C72.0044 48.0017 71.9076 47.9671 71.8107 47.9325" stroke="#2D64A2" stroke-width="2.5" stroke-linejoin="round"/>
<path d="M23.1021 47.9325C23.0053 47.9671 22.9084 48.0017 22.8213 48.0479" stroke="#2D64A2" stroke-width="2.5" stroke-linejoin="round"/>
<path d="M14.4723 47.4365C16.0607 48.1171 17.3974 49.859 18.3756 51.324C19.1311 52.4429 20.148 53.1351 20.2836 51.9008C20.487 50.1243 22.6857 48.1287 24.0126 47.4943" stroke="#2D64A2" stroke-width="2.5" stroke-linejoin="round"/>
<path d="M61.3213 49.2938C61.2825 49.2245 61.2438 49.1553 61.1953 49.0977" stroke="#2D64A2" stroke-width="2.5" stroke-linejoin="round"/>
<path d="M14.4723 47.4366C14.114 47.2866 13.7459 47.1713 13.3585 47.1367C12.1962 47.0559 11.2761 47.9211 10.9468 49.2592C10.7821 49.9513 10.6465 50.8857 10.5497 51.9816V51.9585C10.0654 53.8965 10.0654 60.7601 11.1502 64.4399C11.4214 65.8011 12.3415 66.4125 13.0195 66.5509C15.5474 67.0585 18.4918 67.3353 19.625 65.605C19.9253 65.1436 21.0004 66.2164 22.027 66.3548C24.7099 66.7124 27.3928 66.7124 30.0757 66.3779C30.5987 66.3087 31.0636 66.0318 31.4026 65.605C31.7804 65.1321 32.0128 66.101 32.0128 66.101C32.0128 67.2315 32.7392 68.1659 33.6787 68.2582C37.7079 68.6735 41.7371 68.6735 45.776 68.2582C46.4443 68.189 47.006 67.6929 47.2772 67.0123C47.3838 66.7355 47.5969 67.1046 47.8584 67.4853C48.1586 67.9237 48.6042 68.212 49.1078 68.2697C53.137 68.685 57.1662 68.685 61.205 68.2697C62.1445 68.1774 62.8709 67.2431 62.8709 66.1126C62.8709 66.1126 63.1034 65.1436 63.4811 65.6166C63.8201 66.0434 64.285 66.3202 64.8081 66.3894C67.4909 66.724 70.1738 66.724 72.8567 66.3664C73.496 66.2856 74.0577 65.8703 74.4064 65.2705C74.6195 64.9129 75.0844 65.4781 75.5881 66.0318C76.8859 67.4622 79.5494 67.0354 81.8643 66.574C82.5423 66.4356 83.4624 65.8242 83.7336 64.4515C83.7336 64.4515 83.7336 64.4745 83.7336 64.463C85.6416 59.6527 84.3341 51.9816 84.3341 51.9816V52.0047C84.2372 50.9088 84.1113 49.9744 83.937 49.2823C83.6077 47.9557 82.6876 47.0905 81.5253 47.1597C81.1476 47.1828 80.7795 47.2982 80.4211 47.4481" stroke="#2D64A2" stroke-width="2.5" stroke-linejoin="round"/>
<path d="M33.7078 49.0862C33.669 49.1554 33.6206 49.2131 33.5819 49.2823" stroke="#2D64A2" stroke-width="2.5" stroke-linejoin="round"/>
<path d="M22.5598 48.0709C22.9665 47.921 23.9254 47.6787 24.3709 47.6787C27.4413 47.6787 30.0951 49.8359 31.3155 52.9389C31.4317 53.2389 32.1194 53.2158 32.284 52.466C32.5455 51.2894 34.0662 48.4401 34.6667 47.4941" stroke="#2D64A2" stroke-width="2.5" stroke-linejoin="round"/>
<path d="M61.3019 49.2246C62.0477 50.4127 62.5901 51.8778 62.7838 53.412C62.8419 53.8734 63.0647 54.4848 63.4133 53.4466C64.5369 50.0667 67.3069 47.6788 70.5419 47.6788C70.9874 47.6788 72.0432 47.921 72.4403 48.071" stroke="#2D64A2" stroke-width="2.5" stroke-linejoin="round"/>
<path d="M72.0916 48.0479C73.4185 48.6939 74.4161 50.1243 74.6195 51.9008C74.6583 52.2468 74.697 52.5929 74.726 52.939C74.8132 53.8387 75.3072 53.8503 75.5977 53.112C75.8593 52.4429 76.1692 51.8546 76.5276 51.324C77.5155 49.859 78.8521 48.1056 80.4405 47.4365" stroke="#2D64A2" stroke-width="2.5" stroke-linejoin="round"/>
<path d="M33.7078 49.0861C35.1219 46.9751 37.2914 45.6255 39.7322 45.6255C42.7153 45.6255 45.3111 47.6442 46.5896 50.6088C47.1416 51.8662 47.7518 51.8662 48.3039 50.6088C49.5824 47.6557 52.1781 45.6255 55.1613 45.6255C57.602 45.6255 59.8878 47.1136 61.3019 49.2246" stroke="#2D64A2" stroke-width="2.5" stroke-linejoin="round"/>
<path d="M20.303 65.3858V59.618" stroke="#2D64A2" stroke-width="2.5" stroke-linecap="round" stroke-linejoin="round"/>
<path d="M31.9257 65.3858V60.7716" stroke="#2D64A2" stroke-width="2.5" stroke-linecap="round" stroke-linejoin="round"/>
<path d="M47.4225 65.3858V63.0787" stroke="#2D64A2" stroke-width="2.5" stroke-linecap="round" stroke-linejoin="round"/>
<path d="M62.9194 65.3858V63.0787" stroke="#2D64A2" stroke-width="2.5" stroke-linecap="round" stroke-linejoin="round"/>
<path d="M74.542 65.3858V60.7716" stroke="#2D64A2" stroke-width="2.5" stroke-linecap="round" stroke-linejoin="round"/>
</g>
<defs>
<clipPath id="clip0_1_708">
<rect width="77" height="45" fill="white" transform="translate(9 25)"/>
</clipPath>
</defs>
</svg>
