<svg width="96" height="96" viewBox="0 0 96 96" fill="none" xmlns="http://www.w3.org/2000/svg">
<rect width="96" height="96" rx="19.2" fill="#D3E8FF"/>
<path d="M25.6304 40.0036C26.7764 33.6529 24.1392 30.2323 26.2282 29.2019C28.8194 27.9205 29.3168 29.7734 32.5177 28.8479C33.797 28.4789 35.4803 26.7558 37.7345 26.4415C44.9586 25.4361 45.3676 29.6717 50.2153 29.5129" stroke="#2D64A2" stroke-width="2.5" stroke-linecap="round" stroke-linejoin="round"/>
<path d="M74.0521 41.1815C73.2179 34.7845 76.2234 31.501 74.1887 30.3665C71.6635 28.962 71.0638 31.2951 67.9112 30.2131C66.6512 29.7819 65.0844 27.343 62.831 27.05C53.6268 25.8485 54.9032 29.3588 50.2152 29.5129" stroke="#2D64A2" stroke-width="2.5" stroke-linecap="round" stroke-linejoin="round"/>
<path d="M48.5212 49.6865C45.8725 49.8608 43.2302 49.7963 40.5915 49.4932C39.9768 49.4221 39.5129 48.8695 39.5286 48.2184L39.6753 42.1687C39.7472 39.2334 42.0684 36.9057 44.8627 36.9737C47.6569 37.0417 49.8634 39.4777 49.7914 42.4131L49.6318 48.9321C49.616 49.5832 49.1379 49.6409 48.5211 49.6811L48.5212 49.6865Z" stroke="#2D64A2" stroke-width="2.5" stroke-linecap="round" stroke-linejoin="round"/>
<path d="M39.5488 47.3558C39.5311 48.1208 38.9672 48.7531 38.2399 48.8155C36.4743 48.9688 34.7162 48.9212 32.9602 48.6729C32.2851 48.5793 31.7661 47.9957 31.7258 47.284C31.5961 44.8562 31.6779 42.5197 32.0151 40.2948C32.228 38.8978 33.404 37.8839 34.7495 37.9167C37.5248 37.9853 39.7145 40.4028 39.6447 43.3191" stroke="#2D64A2" stroke-width="2.5" stroke-linecap="round" stroke-linejoin="round"/>
<path d="M31.7313 47.2865C31.691 48.9251 29.1325 49.6687 27.0405 49.2434C26.5877 49.1513 25.9801 48.7764 25.8334 47.9513C25.2662 44.7667 25.4108 40.3654 25.9387 38.6227C26.1706 37.8594 26.7876 37.3719 27.5486 37.4359C28.9129 37.5495 30.0153 38.8773 30.779 39.9361C31.2597 40.5967 31.5987 41.416 31.7764 42.4598" stroke="#2D64A2" stroke-width="2.5" stroke-linecap="round" stroke-linejoin="round"/>
<path d="M49.6319 48.9348C49.6161 49.5859 50.0902 49.6666 50.705 49.7376C53.3437 50.0407 55.986 50.1052 58.6347 49.9309C59.2543 49.8906 59.7426 49.3609 59.7584 48.7099L59.905 42.6602C59.977 39.7249 57.7705 37.2889 54.9762 37.2209C52.182 37.1528 49.8607 39.4779 49.7888 42.4159" stroke="#2D64A2" stroke-width="2.5" stroke-linecap="round" stroke-linejoin="round"/>
<path d="M59.7787 47.8499C59.7609 48.6149 60.293 49.274 61.0144 49.3716C62.77 49.609 64.5305 49.6484 66.2932 49.4871C66.9718 49.4261 67.519 48.8703 67.5925 48.1578C67.8398 45.7377 67.8728 43.4 67.643 41.1622C67.4979 39.7569 66.3733 38.6873 65.0277 38.6545C62.2525 38.5859 59.947 40.8969 59.8772 43.8132" stroke="#2D64A2" stroke-width="2.5" stroke-linecap="round" stroke-linejoin="round"/>
<path d="M67.5925 48.1578C67.5522 49.7964 70.0721 50.6615 72.1824 50.3407C72.6384 50.2701 73.2625 49.9261 73.4494 49.1072C74.1708 45.9545 74.2394 41.55 73.7988 39.7849C73.6048 39.01 73.0119 38.4937 72.2483 38.522C70.8807 38.5685 69.7152 39.8423 68.9 40.8616C68.3877 41.4977 68.0078 42.298 67.7813 43.3349" stroke="#2D64A2" stroke-width="2.5" stroke-linecap="round" stroke-linejoin="round"/>
<path d="M19.4497 56C18.394 58.1084 17.7788 60.7764 18.0739 63.2021C18.3531 65.4929 20.0672 67.1516 23.1116 67.7987C29.5432 69.1676 35.5934 68.9928 42 68.9928" stroke="#2D64A2" stroke-width="2.5" stroke-linecap="round" stroke-linejoin="round"/>
<path d="M64.4314 53C67.4309 54.511 67.5355 59.3497 66.9217 63.3709C66.5817 65.595 64.4945 67.2055 60.7872 67.8336C55.5 68.7295 50.1802 68.993 42 68.993" stroke="#2D64A2" stroke-width="2.5" stroke-linecap="round" stroke-linejoin="round"/>
<path d="M38.3265 60.2175C40.5403 60.2175 42.3341 58.5348 42.3341 56.4592V51.216C42.3341 50.5277 41.738 49.9695 41.0037 49.9695H35.6467C34.9123 49.9695 34.3162 50.5277 34.3162 51.216V56.4592C34.3162 58.5348 36.11 60.2175 38.3238 60.2175H38.3265Z" stroke="#2D64A2" stroke-width="2.5" stroke-linecap="round" stroke-linejoin="round"/>
<path d="M34.3189 52.0993C34.3189 50.9233 33.3028 49.9695 32.0482 49.9695H28.1843C27.3768 49.9695 26.721 50.5846 26.721 51.3433V56.6489C26.721 58.2584 28.1111 59.5617 29.8263 59.5617C32.3084 59.5617 34.3216 57.6758 34.3216 55.3482" stroke="#2D64A2" stroke-width="2.5" stroke-linecap="round" stroke-linejoin="round"/>
<path d="M26.7183 53.5354C26.7183 51.4815 25.125 49.7338 22.9627 49.4167L21.9222 49.2623C21.0903 49.1404 20.3181 49.6931 20.2287 50.4762C20.0038 52.4651 20.039 54.8686 20.2531 57.1068C20.3452 58.0714 21.2069 58.8084 22.2365 58.8084C24.7105 58.8084 26.7183 56.9279 26.7183 54.6057" stroke="#2D64A2" stroke-width="2.5" stroke-linecap="round" stroke-linejoin="round"/>
<path d="M42.3368 51.216C42.3368 50.5277 42.9329 49.9695 43.6672 49.9695H49.0242C49.7585 49.9695 50.3547 50.5277 50.3547 51.216V56.4592C50.3547 58.5348 48.5609 60.2175 46.3471 60.2175C44.1333 60.2175 42.3395 58.5348 42.3395 56.4592" stroke="#2D64A2" stroke-width="2.5" stroke-linecap="round" stroke-linejoin="round"/>
<path d="M50.352 52.0993C50.352 50.9233 51.3681 49.9695 52.6227 49.9695L56.4867 50.3895C57.2941 50.3895 57.9499 51.0046 57.9499 51.7633V56.6489C57.9499 58.2584 56.5598 59.5617 54.8446 59.5617C52.3626 59.5617 50.3493 57.6758 50.3493 55.3482" stroke="#2D64A2" stroke-width="2.5" stroke-linecap="round" stroke-linejoin="round"/>
<path d="M57.9526 53.5355C57.9526 52.438 58.4078 51.4301 59.1611 50.6795C59.5486 50.2947 61.1689 50.3652 61.6892 50.1375C62.055 49.9777 62.8462 49.8666 62.8462 49.8666C63.7133 50.1375 64.2011 50.1673 64.2905 50.9504C64.5154 52.9393 64.6319 54.8713 64.4205 57.1095C64.3284 58.0741 63.4667 58.8112 62.4371 58.8112C59.9631 58.8112 57.9553 56.9307 57.9553 54.6085" stroke="#2D64A2" stroke-width="2.5" stroke-linecap="round" stroke-linejoin="round"/>
<path d="M78.966 53.2482L86.9161 57.8708" stroke="#2D64A2" stroke-width="2.5" stroke-linecap="round" stroke-linejoin="round"/>
<path d="M74.9286 55.9958L76.175 60.7106" stroke="#2D64A2" stroke-width="2.5" stroke-linecap="round" stroke-linejoin="round"/>
<path d="M79.2207 47.8533L83.9355 46.6068" stroke="#2D64A2" stroke-width="2.5" stroke-linecap="round" stroke-linejoin="round"/>
<path d="M15.587 44.981L9.08386 38.4778" stroke="#2D64A2" stroke-width="2.5" stroke-linecap="round" stroke-linejoin="round"/>
<path d="M20.1935 43.3552V38.4778" stroke="#2D64A2" stroke-width="2.5" stroke-linecap="round" stroke-linejoin="round"/>
<path d="M13.9613 50.1294H9.08386" stroke="#2D64A2" stroke-width="2.5" stroke-linecap="round" stroke-linejoin="round"/>
</svg>
