<svg width="96" height="96" viewBox="0 0 96 96" fill="none" xmlns="http://www.w3.org/2000/svg">
<rect width="96" height="96" rx="19.2" fill="#D3E8FF"/>
<path d="M71.7037 32.5926C76.2856 32.5926 80 28.8782 80 24.2963C80 19.7144 76.2856 16 71.7037 16C67.1218 16 63.4074 19.7144 63.4074 24.2963C63.4074 28.8782 67.1218 32.5926 71.7037 32.5926Z" stroke="#2D64A2" stroke-width="2.5" stroke-linecap="round" stroke-linejoin="round"/>
<path d="M65.92 30.08L61.037 34.9629" stroke="#2D64A2" stroke-width="2.5" stroke-linecap="round" stroke-linejoin="round"/>
<path d="M56.3674 30.2933L65.7037 39.6296C66.5096 40.4355 66.96 41.5259 66.96 42.6637C66.96 43.8015 66.5067 44.8948 65.7037 45.6978L58.6637 52.7378L43.2563 37.3304L50.2963 30.2904C51.1022 29.4844 52.1926 29.0341 53.3304 29.0341C54.4681 29.0341 55.5615 29.4874 56.3644 30.2904L56.3674 30.2933Z" stroke="#2D64A2" stroke-width="2.5" stroke-linecap="round" stroke-linejoin="round"/>
<path d="M55.1111 39.7037L63.4074 48" stroke="#2D64A2" stroke-width="2.5" stroke-linecap="round" stroke-linejoin="round"/>
<path d="M48 32.5925L51.5556 36.1481" stroke="#2D64A2" stroke-width="2.5" stroke-linecap="round" stroke-linejoin="round"/>
<path d="M24.2963 37.3334L27.0726 34.5571C30.7763 30.8534 36.7793 30.8534 40.48 34.5571L60.2578 54.3349C63.9615 58.0386 63.9615 64.0415 60.2578 67.7423L57.4815 70.5186" stroke="#2D64A2" stroke-width="2.5" stroke-linecap="round" stroke-linejoin="round"/>
<path d="M20.7407 75.2593L16 80" stroke="#2D64A2" stroke-width="2.5" stroke-linecap="round" stroke-linejoin="round"/>
<path d="M45.6296 39.7037L18.4415 66.8919C17.6356 67.6978 17.1852 68.7882 17.1852 69.926C17.1852 71.0637 17.6385 72.1571 18.4415 72.96L23.037 77.5556C23.843 78.3615 24.9333 78.8119 26.0711 78.8119C27.2089 78.8119 28.3022 78.3586 29.1052 77.5556L56.2933 50.3674" stroke="#2D64A2" stroke-width="2.5" stroke-linecap="round" stroke-linejoin="round"/>
<path d="M36.1481 70.5184L32.5926 66.9629" stroke="#2D64A2" stroke-width="2.5" stroke-linecap="round" stroke-linejoin="round"/>
<path d="M42.074 64.5925L38.5185 61.037" stroke="#2D64A2" stroke-width="2.5" stroke-linecap="round" stroke-linejoin="round"/>
<path d="M48 58.6666L44.4445 55.1111" stroke="#2D64A2" stroke-width="2.5" stroke-linecap="round" stroke-linejoin="round"/>
</svg>
