<svg width="96" height="96" viewBox="0 0 96 96" fill="none" xmlns="http://www.w3.org/2000/svg">
<rect width="96" height="96" rx="19.2" fill="#D3E8FF"/>
<path d="M35.7879 22.2676C33.8238 20.4248 31.1866 19.3104 28.2845 19.3104C22.1934 19.3104 17.25 24.2538 17.25 30.3448C17.25 42.4717 29.7079 54.6207 29.3879 71.1724C29.2776 76.4469 31.5948 77.7931 33.8017 77.7931C37.3879 77.7931 39.3852 74.2731 40.4224 64.5517C40.8528 60.5131 42.6293 56.8276 45.9397 56.8276C49.25 56.8276 51.0266 60.5131 51.4569 64.5517C52.4941 74.2731 54.4914 77.7931 58.0776 77.7931C60.2845 77.7931 62.5907 76.4469 62.4914 71.1724C62.1714 54.6207 74.6293 42.4717 74.6293 30.3448C74.6293 24.2538 69.6859 19.3104 63.5948 19.3104C60.6928 19.3104 58.0555 20.4248 56.0914 22.2676" stroke="#2D64A2" stroke-width="2.5" stroke-linecap="round" stroke-linejoin="round"/>
<path d="M32.6983 25.931C32.6983 25.931 37.1121 18.2069 45.9397 18.2069C54.7672 18.2069 59.181 25.931 59.181 25.931" stroke="#2D64A2" stroke-width="2.5" stroke-linecap="round" stroke-linejoin="round"/>
<path d="M64.6983 41.3793C56.0831 39.4317 54.5079 37.8566 52.5603 29.2414C50.6128 37.8566 49.0376 39.4317 40.4224 41.3793C49.0376 43.3269 50.6128 44.9021 52.5603 53.5173C54.5079 44.9021 56.0831 43.3269 64.6983 41.3793Z" stroke="#2D64A2" stroke-width="2.5" stroke-linecap="round" stroke-linejoin="round"/>
<path d="M81.25 62.3449C76.5521 61.2828 75.6914 60.4221 74.6293 55.7242C73.5672 60.4221 72.7066 61.2828 68.0086 62.3449C72.7066 63.4069 73.5672 64.2676 74.6293 68.9656C75.6914 64.2676 76.5521 63.4069 81.25 62.3449Z" stroke="#2D64A2" stroke-width="2.5" stroke-linecap="round" stroke-linejoin="round"/>
</svg>
