<svg width="96" height="96" viewBox="0 0 96 96" fill="none" xmlns="http://www.w3.org/2000/svg">
<rect width="96" height="96" rx="19.2" fill="#D3E8FF"/>
<path d="M46.2 38.7999L41.4 43.5999V75.9999C41.4 78.6519 43.548 80.7999 46.2 80.7999C48.852 80.7999 51 78.6519 51 75.9999V43.5999L46.2 38.7999Z" stroke="#2D64A2" stroke-width="2.5" stroke-linecap="round" stroke-linejoin="round"/>
<path d="M41.4 70H51" stroke="#2D64A2" stroke-width="2.5" stroke-linecap="round" stroke-linejoin="round"/>
<path d="M46.2 38.7999V30.3999" stroke="#2D64A2" stroke-width="2.5" stroke-linecap="round" stroke-linejoin="round"/>
<path d="M46.2 30.4C50.1764 30.4 53.4 27.1764 53.4 23.2C53.4 19.2235 50.1764 16 46.2 16C42.2235 16 39 19.2235 39 23.2C39 27.1764 42.2235 30.4 46.2 30.4Z" stroke="#2D64A2" stroke-width="2.5" stroke-linecap="round" stroke-linejoin="round"/>
<path d="M51.288 18.1L47.4 22" stroke="#2D64A2" stroke-width="2.5" stroke-linecap="round" stroke-linejoin="round"/>
<path d="M25.8 38.7999L21 43.5999V75.9999C21 78.6519 23.148 80.7999 25.8 80.7999C28.452 80.7999 30.6 78.6519 30.6 75.9999V43.5999L25.8 38.7999Z" stroke="#2D64A2" stroke-width="2.5" stroke-linecap="round" stroke-linejoin="round"/>
<path d="M21 70H30.6" stroke="#2D64A2" stroke-width="2.5" stroke-linecap="round" stroke-linejoin="round"/>
<path d="M25.8 38.8V22L33 16" stroke="#2D64A2" stroke-width="2.5" stroke-linecap="round" stroke-linejoin="round"/>
<path d="M70.5111 77.1071V51.1786L66.0667 42.9286V17H61.6222C60.3944 17 59.4 18.0548 59.4 19.3571V44.8054L63.8444 53.0554V77.1042C63.8444 79.0577 65.3361 80.6399 67.1778 80.6399C69.0194 80.6399 70.5111 79.0577 70.5111 77.1042V77.1071Z" stroke="#2D64A2" stroke-width="2.5" stroke-linecap="round" stroke-linejoin="round"/>
<path d="M66.0667 42.9286H76.0667C76.6805 42.9286 77.1778 42.4012 77.1778 41.75V20.5357C77.1778 19.8846 76.6805 19.3572 76.0667 19.3572H66.0667" stroke="#2D64A2" stroke-width="2.5" stroke-linecap="round" stroke-linejoin="round"/>
<path d="M77.1778 31.1428H72.7333" stroke="#2D64A2" stroke-width="2.5" stroke-linecap="round" stroke-linejoin="round"/>
<path d="M77.1778 37.0356H72.7333" stroke="#2D64A2" stroke-width="2.5" stroke-linecap="round" stroke-linejoin="round"/>
<path d="M77.1778 25.25H72.7333" stroke="#2D64A2" stroke-width="2.5" stroke-linecap="round" stroke-linejoin="round"/>
</svg>
