<svg width="96" height="96" viewBox="0 0 96 96" fill="none" xmlns="http://www.w3.org/2000/svg">
<rect width="96" height="96" rx="19.2" fill="#D3E8FF"/>
<path d="M39.951 55.8014C38.3841 54.3779 36.2986 53.5062 34.0255 53.5062C29.1483 53.5062 25.1979 57.4676 25.1979 62.3338C25.1979 67.2 27.7359 72.331 30.2186 77.7931H66.489C68.9828 72.331 71.5317 67.3324 71.5428 62.3338C71.5428 57.4676 67.5814 53.5062 62.7152 53.5062C60.42 53.5062 58.3235 54.389 56.7566 55.8234" stroke="#2D64A2" stroke-width="2.5" stroke-linecap="round" stroke-linejoin="round"/>
<path d="M58.5442 57.931C56.3786 54.6096 52.6297 52.4138 48.3704 52.4138C44.111 52.4138 40.3621 54.6096 38.1966 57.931" stroke="#2D64A2" stroke-width="2.5" stroke-linecap="round" stroke-linejoin="round"/>
<path d="M49.4738 35.8621H52.7842C55.2228 35.8621 57.198 33.8869 57.198 31.4483V22.6207C57.198 20.1821 55.2228 18.2069 52.7842 18.2069H43.9566C41.518 18.2069 39.5428 20.1821 39.5428 22.6207V31.4483C39.5428 33.8869 41.518 35.8621 43.9566 35.8621" stroke="#2D64A2" stroke-width="2.5" stroke-linecap="round" stroke-linejoin="round"/>
<path d="M43.9566 35.8621L45.7497 41.2414C46.1552 42.4552 46.078 43.8317 45.3552 44.8883C45.1676 45.1642 45.06 45.4704 45.06 45.7931C45.06 47.0124 46.5414 48 48.3704 48C50.1993 48 51.6807 47.0124 51.6807 45.7931C51.6807 45.4704 51.5759 45.1642 51.3855 44.8883C50.6628 43.8317 50.5855 42.458 50.9911 41.2414L52.7842 35.8621" stroke="#2D64A2" stroke-width="2.5" stroke-linecap="round" stroke-linejoin="round"/>
<path d="M57.198 22.6207H78.1635" stroke="#2D64A2" stroke-width="2.5" stroke-linecap="round" stroke-linejoin="round"/>
<path d="M57.198 31.4483H78.1635" stroke="#2D64A2" stroke-width="2.5" stroke-linecap="round" stroke-linejoin="round"/>
<path d="M63.8187 22.6207V31.4483" stroke="#2D64A2" stroke-width="2.5" stroke-linecap="round" stroke-linejoin="round"/>
<path d="M69.3359 35.8621H75.9566" stroke="#2D64A2" stroke-width="2.5" stroke-linecap="round" stroke-linejoin="round"/>
<path d="M69.3359 43.5862C75.4297 43.5862 80.3704 48.5269 80.3704 54.6207" stroke="#2D64A2" stroke-width="2.5" stroke-linecap="round" stroke-linejoin="round"/>
<path d="M69.3359 49.1035C72.3842 49.1035 74.8531 51.5724 74.8531 54.6207" stroke="#2D64A2" stroke-width="2.5" stroke-linecap="round" stroke-linejoin="round"/>
<path d="M27.4048 43.5862C21.3111 43.5862 16.3704 48.5269 16.3704 54.6207" stroke="#2D64A2" stroke-width="2.5" stroke-linecap="round" stroke-linejoin="round"/>
<path d="M27.4048 49.1035C24.3566 49.1035 21.8876 51.5724 21.8876 54.6207" stroke="#2D64A2" stroke-width="2.5" stroke-linecap="round" stroke-linejoin="round"/>
</svg>
