<svg width="48" height="48" viewBox="0 0 48 48" fill="none" xmlns="http://www.w3.org/2000/svg">
<path d="M34.5748 24.6094C34.5748 30.1587 26.3491 37.237 18.4136 32.9333C18.4136 32.9333 23.9864 31.7342 27.5558 29.759C31.5719 27.5374 34.5702 24.6094 34.5702 24.6094H34.5748Z" fill="#E16782"/>
<path d="M9.63779 14.1564C10.4869 11.4257 9.77631 8.76905 8.05073 8.22269C6.32516 7.67633 4.238 9.44713 3.38893 12.1779C2.53987 14.9086 3.25042 17.5652 4.97599 18.1116C6.70156 18.6579 8.78872 16.8872 9.63779 14.1564Z" fill="#83CCB1"/>
<path d="M29.8024 14.8174C31.2205 12.3388 31.1004 9.58977 29.5342 8.67727C27.968 7.76476 25.5487 9.03431 24.1306 11.5129C22.7126 13.9915 22.8327 16.7405 24.3989 17.653C25.9651 18.5655 28.3844 17.2959 29.8024 14.8174Z" fill="#83CCB1"/>
<path d="M12.1491 31.7118C13.7795 26.4683 13.6984 21.7734 11.9679 21.2255C10.2375 20.6776 7.51306 24.4842 5.8827 29.7277C4.25233 34.9712 4.33345 39.6661 6.06388 40.214C7.7943 40.7619 10.5188 36.9553 12.1491 31.7118Z" fill="#F0CA83"/>
<path d="M2.30743 31.2088C2.95682 29.5217 3.75821 27.9601 4.70236 26.5193C5.51296 25.3156 6.55383 23.991 7.81578 22.5456C9.08233 21.1002 10.2982 19.85 11.4635 18.795L12.1451 18.2001L11.9793 16.8615C11.9194 16.3038 11.8457 15.7415 11.7582 15.1698C11.6707 14.5981 11.5924 14.1241 11.5187 13.7476C11.445 13.3712 11.3898 13.176 11.3529 13.162C11.3299 13.162 11.247 13.2875 11.1134 13.5431C10.9799 13.7987 10.8233 14.1101 10.6529 14.4819C9.25274 17.4332 7.64998 19.348 5.83996 20.2311C5.08003 20.6168 4.4859 20.812 4.06218 20.8167C3.63846 20.8213 3.41278 20.826 3.38976 20.826C2.57916 20.826 1.85147 20.5332 1.21589 19.9522C0.405297 19.1203 0 17.9723 0 16.5083V16.434C0 14.9467 0.419111 13.3479 1.25273 11.6329C1.89292 10.3037 2.66206 9.20687 3.55556 8.34241C4.99252 6.92953 6.58607 6.15337 8.33161 6.01859C8.51584 6.00465 8.70006 6 8.88429 6C11.1825 6 12.8359 6.94347 13.8446 8.82577C14.1255 9.39743 14.4203 10.155 14.7196 11.0938C15.019 12.0373 15.2815 12.9854 15.5026 13.9382C15.5901 14.3472 15.6638 14.6957 15.7329 14.9792C15.802 15.2628 15.8388 15.4115 15.8526 15.4254C15.8895 15.4254 15.9954 15.3743 16.1658 15.2767C16.3639 15.1652 16.5941 15.0211 16.8659 14.8491C17.5291 14.4401 18.2337 14.0172 18.9753 13.585C19.7214 13.1527 20.3708 12.7809 20.928 12.4788C21.4853 12.1767 21.8354 12.0048 21.9689 11.9676C22.0564 11.9536 22.1347 11.949 22.2084 11.949C22.6736 11.949 23.0697 12.1302 23.3875 12.4881C23.6684 12.8134 23.8112 13.176 23.8112 13.585C23.8112 13.7197 23.7928 13.8638 23.7559 14.0125C23.6822 14.6446 22.4019 15.6299 19.9194 16.9684C19.5648 17.1683 19.1549 17.4007 18.6943 17.6656C18.2337 17.9305 17.8377 18.1722 17.5061 18.3813L16.327 19.1249V22.4341C16.327 23.675 16.3132 24.6556 16.281 25.3714C16.2487 26.0918 16.1934 26.7378 16.1059 27.3048C15.6408 30.7394 14.8164 33.6535 13.6373 36.047C12.3477 38.566 11.0029 40.202 9.60738 40.9596C8.21187 41.7171 7.019 42.0936 6.02418 42.0936C5.4715 42.0936 4.93725 42.0006 4.42142 41.8147C2.98446 41.3081 2.09096 40.4483 1.75014 39.2492C1.40472 38.0455 1.23431 37.0788 1.23431 36.3491C1.23431 34.8851 1.58895 33.1701 2.30282 31.1949L2.30743 31.2088ZM6.43869 15.5463C7.346 14.3332 8.17962 12.7763 8.92574 10.8754L9.18365 10.2433H8.83363C8.09672 10.2433 7.32758 10.6151 6.53081 11.3587C5.73403 12.1024 5.08463 13.0505 4.59643 14.2031C4.13126 15.3929 3.89638 16.2434 3.89638 16.75C3.89638 17.0846 3.99309 17.2752 4.19114 17.3263C4.22798 17.3402 4.26483 17.3449 4.30167 17.3449C4.79448 17.3449 5.50374 16.7453 6.43869 15.5416V15.5463ZM10.2015 33.9463C11.5556 30.8231 12.2556 27.3792 12.3017 23.6239V22.4712L11.2516 23.5681C8.38688 26.6076 6.47093 29.4567 5.49914 32.1244C4.92343 33.8626 4.63328 35.243 4.63328 36.2747C4.63328 36.7813 4.70697 37.2043 4.85435 37.5389C5.12608 38.171 5.51756 38.487 6.03339 38.487C6.34197 38.487 6.692 38.3755 7.08348 38.1524C8.15199 37.5714 9.19287 36.1678 10.1969 33.9463H10.2015Z" fill="#015094"/>
<path d="M19.7675 19.0413C19.3991 18.2094 19.2148 17.3403 19.2148 16.4386C19.2148 14.8027 19.809 13.0273 21.0018 11.1171C22.0473 9.54152 23.3645 8.31455 24.9581 7.43614C26.5516 6.55774 28.2051 6.11621 29.9276 6.11621C30.0888 6.11621 30.2454 6.12086 30.4066 6.1348C30.8119 6.15804 31.1435 6.20452 31.4014 6.27423C31.6593 6.34395 31.9863 6.48337 32.3778 6.69252C32.6587 6.8273 32.9259 6.95279 33.1792 7.06433C33.4325 7.17587 33.6121 7.24559 33.7226 7.26883C33.8332 7.29206 33.9575 7.33854 34.1003 7.40826C34.2431 7.47797 34.3674 7.55233 34.478 7.64064C34.7957 7.86372 35.0352 8.18906 35.1872 8.61664C35.3392 9.04423 35.459 9.72278 35.5465 10.6523C35.7307 12.5253 35.9656 13.915 36.2465 14.8212C36.7762 16.3829 37.2506 17.1637 37.6743 17.1637H38.3283C39.1527 17.1637 40.0001 16.7593 40.8706 15.9553C41.7411 15.1512 42.524 14.3054 43.2103 13.427C44.6979 11.554 45.6605 10.5733 46.1026 10.4896C46.227 10.4664 46.3375 10.4525 46.4342 10.4525C46.8902 10.4525 47.2678 10.6198 47.5764 10.9544C47.8574 11.2519 48.0001 11.6004 48.0001 11.9955C48.0001 12.1442 47.9817 12.2976 47.9449 12.4602C47.7745 12.9064 47.2955 13.6175 46.5171 14.5982C45.7388 15.5788 44.9236 16.4897 44.0761 17.331C41.9621 19.4875 39.9771 20.5657 38.121 20.5657H37.9921C36.813 20.5425 35.8182 20.2079 35.0168 19.5618C34.2108 18.9158 33.5614 18.1071 33.0732 17.1265C32.5804 16.1458 32.2028 15.1466 31.931 14.1334L31.231 15.1745C30.7151 15.9413 30.2315 16.5966 29.7848 17.1358C29.3334 17.6749 28.8406 18.2047 28.3018 18.7253C27.4774 19.52 26.6806 20.1103 25.9068 20.4914C25.0226 20.9515 24.1291 21.1792 23.2356 21.1792C22.9777 21.1792 22.7197 21.1606 22.4618 21.1234C21.3058 20.9515 20.4077 20.2543 19.7721 19.0413H19.7675ZM25.999 16.2713C26.7865 15.6253 27.4543 14.9328 28.007 14.1892C28.3156 13.7802 28.6426 13.2922 28.9926 12.7298C29.3427 12.1674 29.6236 11.6841 29.8309 11.2797C30.0381 10.8754 30.144 10.6337 30.144 10.5454C30.144 10.5315 30.1394 10.5222 30.1256 10.5082H30.0888C29.9414 10.5082 29.6835 10.564 29.315 10.6755C28.8959 10.8103 28.463 10.973 28.0162 11.1589C27.5695 11.3448 27.2149 11.5168 26.9569 11.6794C26.4641 12.0001 25.9898 12.4277 25.5292 12.9529C25.0686 13.4781 24.7048 14.0126 24.433 14.5424C23.9402 15.5602 23.6961 16.3085 23.6961 16.7918C23.6961 16.9406 23.7192 17.0661 23.7698 17.1637C23.8297 17.2613 23.931 17.3124 24.0646 17.3124C24.433 17.3124 25.0778 16.9638 25.999 16.2713Z" fill="#015094"/>
<path d="M33.4553 24.1724C32.0736 31.4738 26.1461 34.3043 19.2745 32.5707C17.2987 32.0734 16.4512 35.1548 18.4316 35.6521C26.8876 37.7853 34.8001 34.0579 36.5088 25.0229C36.8911 23.0105 33.8375 22.1507 33.4553 24.1724Z" fill="#015094"/>
</svg>
