<svg width="24" height="24" viewBox="0 0 24 24" fill="none" xmlns="http://www.w3.org/2000/svg">
<path d="M20 9.373V16.5C20 17.163 19.7366 17.7989 19.2678 18.2678C18.7989 18.7366 18.163 19 17.5 19H6.5C5.83696 19 5.20107 18.7366 4.73223 18.2678C4.26339 17.7989 4 17.163 4 16.5V9.373L11.746 13.931C11.823 13.9764 11.9107 14.0003 12 14.0003C12.0893 14.0003 12.177 13.9764 12.254 13.931L20 9.373ZM17.5 6C18.1151 5.9999 18.7087 6.22661 19.1672 6.63674C19.6257 7.04687 19.9168 7.61164 19.985 8.223L12 12.92L4.015 8.223C4.08316 7.61164 4.37432 7.04687 4.83279 6.63674C5.29127 6.22661 5.88485 5.9999 6.5 6H17.5Z" fill="#C0DCFB" fill-opacity="0.7"/>
</svg>
