<svg width="96" height="96" viewBox="0 0 96 96" fill="none" xmlns="http://www.w3.org/2000/svg">
<rect width="96" height="96" rx="19.2" fill="#D3E8FF"/>
<path d="M36.1121 48.3308H39.4224" stroke="#2D64A2" stroke-width="2.5" stroke-linecap="round" stroke-linejoin="round"/>
<path d="M57.0776 48.3308H60.3879" stroke="#2D64A2" stroke-width="2.5" stroke-linecap="round" stroke-linejoin="round"/>
<path d="M58.181 67.3653H37.1272C33.9714 67.3653 31.2541 65.1363 30.6362 62.0439L26.1838 39.7791" stroke="#2D64A2" stroke-width="2.5" stroke-linecap="round" stroke-linejoin="round"/>
<path d="M70.3189 39.7791L66.7879 57.4342" stroke="#2D64A2" stroke-width="2.5" stroke-linecap="round" stroke-linejoin="round"/>
<path d="M28.388 23.0425C24.49 24.7446 21.7673 28.6342 21.7673 33.1584V39.7791H47.1466C53.2404 39.7791 58.1811 34.8384 58.1811 28.7446V22.1239H41.0776" stroke="#2D64A2" stroke-width="2.5" stroke-linecap="round" stroke-linejoin="round"/>
<path d="M53.7673 28.7446C53.7673 32.3942 50.7963 35.3653 47.1466 35.3653" stroke="#2D64A2" stroke-width="2.5" stroke-linecap="round" stroke-linejoin="round"/>
<path d="M58.181 22.1239H63.6983C69.7921 22.1239 74.7328 27.0646 74.7328 33.1584V39.7791H69.2155C63.1217 39.7791 58.181 34.8384 58.181 28.7446V22.1239Z" stroke="#2D64A2" stroke-width="2.5" stroke-linecap="round" stroke-linejoin="round"/>
<path d="M23.9742 48.6067C23.0583 48.6067 22.2307 48.9819 21.6349 49.5777C21.039 50.1736 20.6638 51.0012 20.6638 51.917C20.6638 53.7488 22.1424 55.2274 23.9742 55.2274H29.2707" stroke="#2D64A2" stroke-width="2.5" stroke-linecap="round" stroke-linejoin="round"/>
<path d="M67.2293 55.2274H72.5259C74.3576 55.2274 75.8362 53.7488 75.8362 51.917C75.8362 51.0012 75.461 50.1736 74.8652 49.5777C74.2693 48.9819 73.4417 48.6067 72.5259 48.6067" stroke="#2D64A2" stroke-width="2.5" stroke-linecap="round" stroke-linejoin="round"/>
<path d="M21.7672 39.7791C18.2334 43.3128 16.25 48.1018 16.25 53.0977V60.7446C16.25 64.3997 19.2155 67.3653 22.8707 67.3653H38.319" stroke="#2D64A2" stroke-width="2.5" stroke-linecap="round" stroke-linejoin="round"/>
<path d="M74.7328 39.7791C78.2666 43.3128 80.25 48.1018 80.25 53.0977V60.7446C80.25 64.3997 77.2845 67.3653 73.6293 67.3653H71.4224" stroke="#2D64A2" stroke-width="2.5" stroke-linecap="round" stroke-linejoin="round"/>
<path d="M57.3535 53.5722H39.6983V54.6757C39.6983 57.7239 42.1673 60.1929 45.2155 60.1929H51.8362C54.8845 60.1929 57.3535 57.7239 57.3535 54.6757V53.5722Z" stroke="#2D64A2" stroke-width="2.5" stroke-linecap="round" stroke-linejoin="round"/>
<path d="M21.7673 81.7101V73.986C21.7673 70.3308 24.7328 67.3653 28.388 67.3653H57.0776" stroke="#2D64A2" stroke-width="2.5" stroke-linecap="round" stroke-linejoin="round"/>
<path d="M32.8018 67.3653V77.2963L42.7328 72.8825" stroke="#2D64A2" stroke-width="2.5" stroke-linecap="round" stroke-linejoin="round"/>
<path d="M48.2501 67.3653V81.7101" stroke="#2D64A2" stroke-width="2.5" stroke-linecap="round" stroke-linejoin="round"/>
<path d="M40.8017 19.3653C36.1038 18.3032 35.2431 17.4426 34.1811 12.7446C33.119 17.4426 32.2583 18.3032 27.5604 19.3653C32.2583 20.4274 33.119 21.2881 34.1811 25.986C35.2431 21.2881 36.1038 20.4274 40.8017 19.3653Z" stroke="#2D64A2" stroke-width="2.5" stroke-linecap="round" stroke-linejoin="round"/>
<path d="M76.9397 72.055C68.3245 70.1074 66.7493 68.5322 64.8017 59.9171C62.8542 68.5322 61.279 70.1074 52.6638 72.055C61.279 74.0026 62.8542 75.5777 64.8017 84.1929C66.7493 75.5777 68.3245 74.0026 76.9397 72.055Z" stroke="#2D64A2" stroke-width="2.5" stroke-linecap="round" stroke-linejoin="round"/>
</svg>
