<svg width="96" height="96" viewBox="0 0 96 96" fill="none" xmlns="http://www.w3.org/2000/svg">
<rect width="96" height="96" rx="19.2" fill="#D3E8FF"/>
<path d="M33.5926 24.2963C33.5926 24.2963 38.3333 16 47.8148 16C57.2963 16 62.037 24.2963 62.037 24.2963" stroke="#2D64A2" stroke-width="2.5" stroke-linecap="round" stroke-linejoin="round"/>
<path d="M58.7185 20.3615C60.8163 18.3822 63.6607 17.1852 66.7778 17.1852C73.32 17.1852 78.6296 22.483 78.6296 29.037C78.6296 33.3156 77.1719 37.6059 75.2281 42.0741C74.3985 44.0178 73.4622 45.9852 72.5259 48H23.08H23.0919C22.1437 45.9852 21.2193 44.0059 20.3778 42.0741C18.4459 37.6059 17 33.3156 17 29.037C17 22.483 22.2978 17.1852 28.8519 17.1852C31.9689 17.1852 34.8015 18.3822 36.9111 20.3615" stroke="#2D64A2" stroke-width="2.5" stroke-linecap="round" stroke-linejoin="round"/>
<path d="M75.2045 42.0741H74.0193" stroke="#2D64A2" stroke-width="2.5" stroke-linecap="round" stroke-linejoin="round"/>
<path d="M69.4563 42.0741H23.8326" stroke="#2D64A2" stroke-width="2.5" stroke-linecap="round" stroke-linejoin="round"/>
<path d="M21.5511 42.0741H20.3659" stroke="#2D64A2" stroke-width="2.5" stroke-linecap="round" stroke-linejoin="round"/>
<path d="M27.5719 56.2963H27.5837H38.0963H38.1081H57.4978H57.5096H68.0222H68.0341" stroke="#2D64A2" stroke-width="2.5" stroke-linecap="round" stroke-linejoin="round"/>
<path d="M31.5659 64.5926H31.5778H42.0904H42.1022H53.5037H53.5156H64.0282H64.04" stroke="#2D64A2" stroke-width="2.5" stroke-linecap="round" stroke-linejoin="round"/>
<path d="M35.5719 72.8889H46.0844H46.0963H49.5096H49.5215H60.0341H60.0459" stroke="#2D64A2" stroke-width="2.5" stroke-linecap="round" stroke-linejoin="round"/>
<path d="M28.8519 48L42.7156 76.797C43.6578 78.7556 45.64 80 47.8148 80C49.9896 80 51.9689 78.7556 52.9141 76.797L66.7778 48" stroke="#2D64A2" stroke-width="2.5" stroke-linecap="round" stroke-linejoin="round"/>
</svg>
