<svg width="96" height="96" viewBox="0 0 96 96" fill="none" xmlns="http://www.w3.org/2000/svg">
<rect width="96" height="96" rx="19.2" fill="#D3E8FF"/>
<path d="M47.52 60.8356C48.9126 60.5274 50.3081 60.1689 51.7067 59.76C53.7244 59.1704 55.1111 57.3037 55.1111 55.2V35.5556C55.1111 30.157 52.9215 25.2681 49.3837 21.7274C45.843 18.1896 40.9541 16 35.5556 16C24.7556 16 16 24.7556 16 35.5556V55.2741C16 57.3481 17.3452 59.197 19.3274 59.8104C25.4844 61.7156 31.7037 62.4741 37.9822 62.1452" stroke="#2D64A2" stroke-width="2.5" stroke-linecap="round" stroke-linejoin="round"/>
<path d="M29.037 26.6667V36.1482" stroke="#2D64A2" stroke-width="2.5" stroke-linecap="round" stroke-linejoin="round"/>
<path d="M24.2963 31.4074H33.7778" stroke="#2D64A2" stroke-width="2.5" stroke-linecap="round" stroke-linejoin="round"/>
<path d="M66.963 44.4445V56.2963" stroke="#2D64A2" stroke-width="2.5" stroke-linecap="round" stroke-linejoin="round"/>
<path d="M61.037 50.3704H72.8889" stroke="#2D64A2" stroke-width="2.5" stroke-linecap="round" stroke-linejoin="round"/>
<path d="M76.4444 36.1482V43.2593" stroke="#2D64A2" stroke-width="2.5" stroke-linecap="round" stroke-linejoin="round"/>
<path d="M72.8889 39.7037H80" stroke="#2D64A2" stroke-width="2.5" stroke-linecap="round" stroke-linejoin="round"/>
<path d="M71.7037 68.1482H55.5585C54.1007 68.1482 52.7259 67.4785 51.8282 66.3319L34.4533 44.1719H34.4593C34.0267 43.6148 33.3511 43.2593 32.5926 43.2593C31.283 43.2593 30.2222 44.32 30.2222 45.6296C30.2222 46 30.3082 46.3526 30.4593 46.6637L45.037 76.6608C45.997 78.6371 48.0237 80 50.3704 80H71.7037" stroke="#2D64A2" stroke-width="2.5" stroke-linecap="round" stroke-linejoin="round"/>
<path d="M28.3259 61.7719L35.5556 76.6578C36.5156 78.637 38.5422 80 40.8889 80H62.2222" stroke="#2D64A2" stroke-width="2.5" stroke-linecap="round" stroke-linejoin="round"/>
</svg>
