<svg width="221" height="74" viewBox="0 0 221 74" fill="none" xmlns="http://www.w3.org/2000/svg">
<g clip-path="url(#clip0_1_33)">
<path d="M100.611 46.7822C100.611 55.4116 87.7475 66.4187 75.3376 59.7263C75.3376 59.7263 84.0526 57.8616 89.6345 54.79C95.915 51.3354 100.604 46.7822 100.604 46.7822H100.611Z" fill="#E16782"/>
<path d="M61.6141 30.5273C62.9419 26.2809 61.8307 22.1498 59.1322 21.3001C56.4337 20.4505 53.1697 23.2042 51.8419 27.4506C50.5141 31.697 51.6253 35.8282 54.3238 36.6778C57.0223 37.5274 60.2863 34.7737 61.6141 30.5273Z" fill="#83CCB1"/>
<path d="M93.1483 31.5556C95.3659 27.7013 95.1781 23.4265 92.7288 22.0075C90.2795 20.5885 86.4962 22.5627 84.2786 26.417C82.0609 30.2712 82.2487 34.5461 84.6981 35.965C87.1474 37.384 90.9307 35.4098 93.1483 31.5556Z" fill="#83CCB1"/>
<path d="M65.5411 57.8266C68.0907 49.6727 67.9639 42.372 65.2578 41.52C62.5517 40.668 58.2911 46.5874 55.7415 54.7412C53.1919 62.8951 53.3187 70.1958 56.0248 71.0478C58.7309 71.8998 62.9915 65.9805 65.5411 57.8266Z" fill="#F0CA83"/>
<path d="M0.979533 32.5734C0.496969 30.4919 0.216074 28.4033 0.129644 26.3074C0.0432147 24.2187 0 22.6937 0 21.7542C0 19.3981 0.108037 17.0131 0.316908 14.5775C0.432147 13.2477 0.597803 11.6649 0.806675 9.83641C1.01555 8.00791 1.23162 6.32396 1.44049 4.80623C1.64936 3.28128 1.80782 2.32005 1.90145 1.91532C2.16794 1.04805 2.55687 0.513233 3.06824 0.310869C3.57962 0.108506 3.99736 0.00732422 4.32147 0.00732422C4.7032 0.00732422 5.09213 0.101279 5.47386 0.296415C6.18691 0.621642 6.69108 1.28655 7.00078 2.29114C7.09441 2.61637 7.14483 3.24514 7.14483 4.17023C7.14483 5.86864 6.97197 8.55718 6.62626 12.2431C6.35976 14.9822 6.20131 17.3311 6.1653 19.2897C6.12929 21.2483 6.10768 22.672 6.10768 23.5538C6.10768 25.1004 6.14369 26.3796 6.22292 27.3987C6.56864 31.7567 7.21686 34.279 8.16758 34.9656C9.1183 35.6522 9.96819 35.9919 10.7172 35.9919C12.0785 35.9919 13.8719 35.3848 16.0831 34.1706C17.1778 33.6141 18.287 33.0215 19.4106 32.3927C20.5342 31.7639 21.4201 31.2508 22.0755 30.8461C22.306 30.6943 22.5581 30.5642 22.8246 30.4558C23.0911 30.3474 23.2927 30.2968 23.4296 30.2968C24.2723 30.2968 24.8557 30.5714 25.1726 31.1207C25.4895 31.67 25.6479 32.1542 25.6479 32.5806C25.6479 32.9492 25.5615 33.325 25.3886 33.7081C25.295 33.8598 25.1221 34.0478 24.8845 34.2718C24.6468 34.4958 24.3875 34.6982 24.121 34.8933C23.6384 35.2041 22.8534 35.6811 21.7586 36.3243C20.6638 36.9748 19.5475 37.6108 18.4167 38.2468C15.723 39.8079 13.6703 40.7041 12.2442 40.9353C10.8253 41.1666 9.86016 41.2823 9.36319 41.2823C7.67061 41.2823 6.1653 40.7691 4.84005 39.7501C3.12586 38.4347 1.84383 36.0497 0.979533 32.5734Z" fill="#015094"/>
<path d="M30.2648 20.5399C32.0726 20.735 32.9729 21.8047 32.9729 23.7488C32.9729 24.0379 32.9513 24.5149 32.9153 25.1798C32.8793 25.8447 32.8289 26.5169 32.7713 27.189C32.7136 27.9406 32.6848 28.6344 32.6848 29.2704C32.6848 30.5063 32.8001 31.5543 33.0306 32.4215C33.722 34.7776 34.5359 36.0713 35.465 36.3098C36.3941 36.5483 37.0351 36.6712 37.3808 36.6712C38.6701 36.6712 40.0817 36.093 41.6159 34.9366C42.9987 33.8742 44.5185 32.4215 46.1678 30.5714C46.4775 30.2461 46.9889 29.6896 47.7091 28.9091C48.4294 28.1285 49.1568 27.3697 49.8843 26.6397C50.5541 26.0037 51.1591 25.6857 51.6993 25.6857C51.8145 25.6857 51.9298 25.7074 52.045 25.7435C52.6572 25.917 53.0462 26.235 53.2118 26.6975C53.3775 27.1601 53.4567 27.5359 53.4567 27.825C53.4567 28.2297 53.3631 28.6344 53.1686 29.0392C52.9741 29.4222 52.6572 29.957 52.2035 30.6436C51.7497 31.3302 51.2888 32.0096 50.8206 32.6962C50.3524 33.3828 49.9779 33.8959 49.7114 34.2428C48.2133 36.1942 46.4343 37.8709 44.3816 39.273C42.3217 40.6823 40.5787 41.5351 39.1382 41.8314C37.6977 42.1278 36.639 42.2795 35.9691 42.2795C34.5647 42.2795 33.2322 41.9688 31.9646 41.3544C30.236 40.4077 28.9324 38.9767 28.0465 37.0614C27.1606 35.1462 26.6708 33.4767 26.5772 32.0602C26.4835 30.6436 26.4331 29.6752 26.4331 29.1548C26.4331 27.3624 26.6276 25.6279 27.0093 23.944C27.1822 23.0189 27.4847 22.2166 27.9168 21.5445C28.349 20.8724 29.0476 20.5327 30.0055 20.5327H30.2648V20.5399ZM31.1003 13.1609C30.6753 12.9296 30.3224 12.6044 30.0343 12.178C29.7462 11.7515 29.6022 11.3468 29.6022 10.9638C29.6022 10.176 29.8687 9.54723 30.4089 9.08469C30.949 8.62214 31.6693 8.39087 32.5696 8.39087C33.1098 8.39087 33.4843 8.42701 33.6932 8.49205C33.902 8.5571 34.1469 8.73055 34.4134 8.99796C34.9896 9.54 35.2849 9.9881 35.2921 10.3567C35.2993 10.7253 35.3065 10.9132 35.3065 10.9349C35.3065 11.6287 35.04 12.2502 34.4999 12.785C34.291 13.0163 34.0749 13.1753 33.8516 13.262C33.6284 13.3488 33.297 13.3994 32.8577 13.421C32.7064 13.4427 32.5624 13.45 32.4255 13.45C31.8854 13.45 31.446 13.356 31.1003 13.1609Z" fill="#015094"/>
<path d="M50.1507 57.0449C51.1662 54.4214 52.4194 51.9931 53.8959 49.7526C55.1636 47.8808 56.7913 45.821 58.7648 43.5733C60.7455 41.3256 62.6469 39.3815 64.4691 37.7409L65.5351 36.8158L65.2758 34.7344C65.1822 33.8671 65.0669 32.9926 64.9301 32.1036C64.7932 31.2147 64.6708 30.4775 64.5556 29.8921C64.4403 29.3067 64.3539 29.0031 64.2963 28.9815C64.2603 28.9815 64.1306 29.1766 63.9217 29.5741C63.7129 29.9716 63.468 30.4558 63.2015 31.034C61.012 35.6233 58.5055 38.601 55.6749 39.9741C54.4865 40.574 53.5574 40.8775 52.8948 40.8848C52.2322 40.892 51.8793 40.8992 51.8432 40.8992C50.5756 40.8992 49.4376 40.4439 48.4437 39.5405C47.1761 38.2468 46.5422 36.4617 46.5422 34.1851V34.0695C46.5422 31.7567 47.1977 29.2705 48.5013 26.6037C49.5024 24.5367 50.7052 22.8311 52.1025 21.4868C54.3497 19.2897 56.8417 18.0827 59.5715 17.8731C59.8596 17.8515 60.1477 17.8442 60.4358 17.8442C64.0298 17.8442 66.6155 19.3114 68.1928 22.2384C68.6322 23.1274 69.0931 24.3054 69.5613 25.7653C70.0294 27.2325 70.44 28.7068 70.7857 30.1884C70.9225 30.8244 71.0378 31.3665 71.1458 31.8073C71.2538 32.2482 71.3115 32.4795 71.3331 32.5011C71.3907 32.5011 71.5563 32.4216 71.8228 32.2699C72.1325 32.0964 72.4927 31.8724 72.9176 31.605C73.9548 30.969 75.0567 30.3113 76.2163 29.6391C77.3831 28.967 78.3987 28.3888 79.2702 27.9191C80.1417 27.4493 80.6891 27.1819 80.8979 27.124C81.0348 27.1024 81.1572 27.0951 81.2724 27.0951C81.9999 27.0951 82.6193 27.377 83.1163 27.9335C83.5556 28.4394 83.7789 29.0031 83.7789 29.6391C83.7789 29.8487 83.7501 30.0728 83.6925 30.304C83.5772 31.287 81.575 32.8191 77.6928 34.9006C77.1382 35.2114 76.4972 35.5727 75.777 35.9847C75.0567 36.3966 74.4373 36.7725 73.9187 37.0977L72.0749 38.254V43.3999C72.0749 45.3295 72.0533 46.8545 72.0029 47.9675C71.9525 49.0877 71.866 50.0923 71.7292 50.974C71.0018 56.315 69.7125 60.8465 67.8687 64.5685C65.852 68.4857 63.7489 71.0297 61.5665 72.2078C59.3842 73.3858 57.5188 73.9712 55.963 73.9712C55.0987 73.9712 54.2633 73.8267 53.4566 73.5376C51.2094 72.7498 49.8121 71.4128 49.2792 69.5481C48.739 67.6763 48.4725 66.173 48.4725 65.0383C48.4725 62.7617 49.0271 60.0948 50.1435 57.0233L50.1507 57.0449ZM56.6113 32.689C58.0301 30.8027 59.3338 28.3816 60.5006 25.4256L60.9039 24.4427H60.3565C59.2041 24.4427 58.0013 25.0209 56.7553 26.1773C55.5093 27.3336 54.4937 28.808 53.7303 30.6004C53.0028 32.4505 52.6355 33.7731 52.6355 34.5609C52.6355 35.0813 52.7868 35.3776 53.0965 35.4571C53.1541 35.4788 53.2117 35.486 53.2693 35.486C54.04 35.486 55.1492 34.5537 56.6113 32.6818V32.689ZM62.4957 61.3018C64.6132 56.4451 65.708 51.0897 65.78 45.25V43.4577L64.1378 45.1633C59.6579 49.8899 56.6617 54.3203 55.142 58.4687C54.2417 61.1717 53.7879 63.3182 53.7879 64.9227C53.7879 65.7104 53.9031 66.3681 54.1336 66.8885C54.5586 67.8714 55.1708 68.3628 55.9774 68.3628C56.46 68.3628 57.0074 68.1894 57.6196 67.8425C59.2906 66.9391 60.9183 64.7564 62.4885 61.3018H62.4957Z" fill="#015094"/>
<path d="M77.4551 38.1239C76.8789 36.8303 76.5908 35.4788 76.5908 34.0767C76.5908 31.5327 77.5199 28.7719 79.3854 25.8014C81.0203 23.3514 83.0802 21.4434 85.5723 20.0774C88.0643 18.7115 90.65 18.0249 93.3437 18.0249C93.5958 18.0249 93.8407 18.0321 94.0928 18.0538C94.7266 18.0899 95.2452 18.1622 95.6485 18.2706C96.0518 18.379 96.5632 18.5959 97.1754 18.9211C97.6148 19.1307 98.0325 19.3258 98.4287 19.4993C98.8248 19.6727 99.1057 19.7811 99.2785 19.8173C99.4514 19.8534 99.6459 19.9257 99.8691 20.0341C100.092 20.1425 100.287 20.2581 100.46 20.3954C100.957 20.7424 101.331 21.2483 101.569 21.9132C101.807 22.5781 101.994 23.6333 102.131 25.0787C102.419 27.9913 102.786 30.1523 103.225 31.5616C104.054 33.9899 104.796 35.2041 105.458 35.2041H106.481C107.77 35.2041 109.095 34.5753 110.457 33.325C111.818 32.0747 113.042 30.7593 114.116 29.3934C116.442 26.4808 117.947 24.9559 118.639 24.8258C118.833 24.7896 119.006 24.7679 119.157 24.7679C119.87 24.7679 120.461 25.0281 120.944 25.5485C121.383 26.011 121.606 26.5531 121.606 27.1674C121.606 27.3987 121.577 27.6372 121.52 27.8901C121.253 28.5839 120.504 29.6897 119.287 31.2147C118.07 32.7396 116.795 34.1562 115.47 35.4643C112.164 38.8178 109.059 40.4945 106.157 40.4945H105.955C104.111 40.4583 102.556 39.938 101.302 38.9334C100.042 37.9288 99.0265 36.6713 98.263 35.1463C97.4923 33.6213 96.9017 32.0675 96.4768 30.4919L95.382 32.1108C94.5753 33.3033 93.8191 34.3224 93.1204 35.1608C92.4146 35.9991 91.6439 36.823 90.8013 37.6325C89.512 38.8683 88.266 39.7862 87.056 40.3788C85.6731 41.0943 84.2758 41.4485 82.8786 41.4485C82.4752 41.4485 82.0719 41.4196 81.6686 41.3618C79.8607 41.0943 78.4563 40.0103 77.4623 38.1239H77.4551ZM87.2 33.8165C88.4317 32.8119 89.476 31.735 90.3403 30.5787C90.8229 29.9427 91.3342 29.1838 91.8816 28.3093C92.429 27.4348 92.8684 26.6832 93.1925 26.0544C93.5166 25.4256 93.6822 25.0498 93.6822 24.9125C93.6822 24.8908 93.675 24.8764 93.6534 24.8547H93.5958C93.3653 24.8547 92.962 24.9414 92.3858 25.1149C91.7304 25.3244 91.0533 25.5774 90.3547 25.8665C89.6561 26.1556 89.1015 26.423 88.6981 26.6759C87.9275 27.1746 87.1856 27.8395 86.4654 28.6562C85.7451 29.4729 85.1761 30.304 84.7512 31.1279C83.9805 32.7107 83.5988 33.8743 83.5988 34.6259C83.5988 34.8572 83.6348 35.0523 83.714 35.2041C83.8077 35.3559 83.9661 35.4354 84.175 35.4354C84.7512 35.4354 85.7595 34.8933 87.2 33.8165Z" fill="#015094"/>
<path d="M114.757 51.6244C114.116 51.263 113.604 50.7644 113.23 50.1211C112.855 49.4779 112.668 48.7552 112.668 47.9529C112.668 47.1507 112.855 46.428 113.23 45.792C113.604 45.156 114.116 44.6573 114.757 44.296C115.398 43.9346 116.104 43.7539 116.874 43.7539C117.645 43.7539 118.351 43.9346 118.992 44.296C119.633 44.6501 120.137 45.156 120.504 45.792C120.872 46.428 121.059 47.1507 121.059 47.9529C121.059 48.7552 120.872 49.4779 120.497 50.1211C120.123 50.7644 119.618 51.263 118.985 51.6244C118.351 51.9858 117.645 52.1592 116.874 52.1592C116.104 52.1592 115.398 51.9785 114.757 51.6244ZM118.437 49.6803C118.826 49.2466 119.028 48.6684 119.028 47.9529C119.028 47.2374 118.833 46.652 118.437 46.2184C118.048 45.7848 117.522 45.5679 116.874 45.5679C116.226 45.5679 115.686 45.7848 115.297 46.2112C114.908 46.6376 114.706 47.223 114.706 47.9529C114.706 48.6829 114.901 49.2539 115.297 49.6875C115.693 50.1211 116.212 50.3379 116.874 50.3379C117.537 50.3379 118.048 50.1211 118.437 49.6803Z" fill="#015094"/>
<path d="M128.65 44.3898C129.291 44.7295 129.795 45.2138 130.148 45.8353C130.501 46.4568 130.681 47.1723 130.681 47.9818C130.681 48.7913 130.501 49.4995 130.148 50.1211C129.795 50.7426 129.291 51.2268 128.643 51.5738C127.995 51.9134 127.246 52.0869 126.389 52.0869H123.328V43.8767H126.389C127.253 43.8767 128.002 44.0502 128.65 44.3898ZM128.024 49.7308C128.441 49.3188 128.65 48.7334 128.65 47.9746C128.65 47.2157 128.441 46.6303 128.024 46.2111C127.606 45.7919 127.015 45.5823 126.266 45.5823H125.323V50.3523H126.266C127.015 50.3523 127.606 50.1427 128.024 49.7308Z" fill="#015094"/>
<path d="M134.715 51.6244C134.074 51.263 133.562 50.7644 133.188 50.1211C132.813 49.4779 132.626 48.7552 132.626 47.9529C132.626 47.1507 132.813 46.428 133.188 45.792C133.562 45.156 134.074 44.6573 134.715 44.296C135.356 43.9346 136.062 43.7539 136.832 43.7539C137.603 43.7539 138.309 43.9346 138.95 44.296C139.591 44.6501 140.095 45.156 140.462 45.792C140.83 46.428 141.017 47.1507 141.017 47.9529C141.017 48.7552 140.83 49.4779 140.455 50.1211C140.081 50.7644 139.576 51.263 138.943 51.6244C138.309 51.9858 137.603 52.1592 136.832 52.1592C136.062 52.1592 135.356 51.9785 134.715 51.6244ZM138.395 49.6803C138.784 49.2466 138.986 48.6684 138.986 47.9529C138.986 47.2374 138.791 46.652 138.395 46.2184C138.006 45.7848 137.48 45.5679 136.832 45.5679C136.184 45.5679 135.644 45.7848 135.255 46.2112C134.866 46.6376 134.664 47.223 134.664 47.9529C134.664 48.6829 134.859 49.2539 135.255 49.6875C135.651 50.1211 136.17 50.3379 136.832 50.3379C137.495 50.3379 138.006 50.1211 138.395 49.6803Z" fill="#015094"/>
<path d="M150.596 52.0798H148.601L145.266 47.0207V52.0798H143.271V43.8696H145.266L148.601 48.9576V43.8696H150.596V52.0798Z" fill="#015094"/>
<path d="M159.095 43.8767V45.4812H156.927V52.0869H154.932V45.4812H152.764V43.8767H159.088H159.095Z" fill="#015094"/>
<path d="M163.013 51.6244C162.372 51.263 161.861 50.7644 161.486 50.1211C161.112 49.4779 160.924 48.7552 160.924 47.9529C160.924 47.1507 161.112 46.428 161.486 45.792C161.861 45.156 162.372 44.6573 163.013 44.296C163.654 43.9346 164.36 43.7539 165.131 43.7539C165.901 43.7539 166.607 43.9346 167.248 44.296C167.889 44.6501 168.393 45.156 168.761 45.792C169.128 46.428 169.315 47.1507 169.315 47.9529C169.315 48.7552 169.128 49.4779 168.753 50.1211C168.379 50.7644 167.875 51.263 167.241 51.6244C166.607 51.9858 165.901 52.1592 165.131 52.1592C164.36 52.1592 163.654 51.9785 163.013 51.6244ZM166.693 49.6803C167.082 49.2466 167.284 48.6684 167.284 47.9529C167.284 47.2374 167.09 46.652 166.693 46.2184C166.305 45.7848 165.779 45.5679 165.131 45.5679C164.482 45.5679 163.942 45.7848 163.553 46.2112C163.164 46.6376 162.963 47.223 162.963 47.9529C162.963 48.6829 163.157 49.2539 163.553 49.6875C163.949 50.1211 164.468 50.3379 165.131 50.3379C165.793 50.3379 166.305 50.1211 166.693 49.6803Z" fill="#015094"/>
<path d="M173.572 50.5403H176.179V52.0869H171.577V43.8767H173.572V50.5403Z" fill="#015094"/>
<path d="M180.054 51.6244C179.413 51.263 178.902 50.7644 178.527 50.1211C178.153 49.4779 177.965 48.7552 177.965 47.953C177.965 47.1507 178.153 46.428 178.527 45.792C178.902 45.156 179.413 44.6573 180.054 44.296C180.695 43.9346 181.401 43.7539 182.172 43.7539C182.942 43.7539 183.648 43.9346 184.289 44.296C184.93 44.6501 185.434 45.156 185.802 45.792C186.169 46.428 186.356 47.1507 186.356 47.953C186.356 48.7552 186.169 49.4779 185.794 50.1211C185.42 50.7644 184.916 51.263 184.282 51.6244C183.648 51.9858 182.942 52.1592 182.172 52.1592C181.401 52.1592 180.695 51.9785 180.054 51.6244ZM183.735 49.6803C184.123 49.2466 184.325 48.6685 184.325 47.953C184.325 47.2375 184.131 46.6521 183.735 46.2184C183.346 45.7848 182.82 45.568 182.172 45.568C181.523 45.568 180.983 45.7848 180.594 46.2112C180.205 46.6376 180.004 47.223 180.004 47.953C180.004 48.6829 180.198 49.2539 180.594 49.6875C180.99 50.1211 181.509 50.338 182.172 50.338C182.834 50.338 183.346 50.1211 183.735 49.6803ZM183.518 42.2217L180.709 43.3998V42.0194L183.518 40.6606V42.2145V42.2217Z" fill="#015094"/>
<path d="M194.056 46.4715C193.904 46.1968 193.696 45.9872 193.422 45.8427C193.148 45.6981 192.824 45.6259 192.45 45.6259C191.809 45.6259 191.29 45.8355 190.901 46.2619C190.512 46.6883 190.318 47.252 190.318 47.9603C190.318 48.7191 190.519 49.3045 190.93 49.731C191.34 50.1574 191.895 50.367 192.615 50.367C193.105 50.367 193.515 50.2441 193.854 49.9911C194.193 49.7454 194.437 49.384 194.596 48.9143H192.068V47.4399H196.404V49.2973C196.26 49.796 196.008 50.2585 195.655 50.685C195.302 51.1114 194.855 51.4583 194.308 51.7257C193.768 51.9931 193.148 52.1232 192.464 52.1232C191.657 52.1232 190.937 51.9425 190.303 51.5884C189.669 51.2342 189.18 50.7428 188.827 50.1068C188.474 49.478 188.294 48.7553 188.294 47.9458C188.294 47.1364 188.467 46.4136 188.827 45.7776C189.187 45.1416 189.669 44.6502 190.303 44.296C190.93 43.9419 191.65 43.7612 192.457 43.7612C193.436 43.7612 194.257 43.9997 194.934 44.4767C195.604 44.9537 196.051 45.6114 196.267 46.4498H194.063L194.056 46.4715Z" fill="#015094"/>
<path d="M200.66 43.8767V52.0869H198.665V43.8767H200.66Z" fill="#015094"/>
<path d="M203.455 45.7991C203.801 45.1631 204.29 44.6717 204.917 44.3175C205.544 43.9634 206.25 43.7827 207.042 43.7827C208.014 43.7827 208.842 44.0429 209.534 44.556C210.225 45.0692 210.686 45.7702 210.924 46.6592H208.734C208.569 46.3195 208.338 46.0593 208.043 45.8786C207.74 45.6979 207.402 45.6112 207.02 45.6112C206.408 45.6112 205.911 45.828 205.529 46.2544C205.148 46.6808 204.96 47.259 204.96 47.9745C204.96 48.69 205.148 49.2682 205.529 49.6946C205.911 50.121 206.408 50.3378 207.02 50.3378C207.402 50.3378 207.74 50.2511 208.043 50.0704C208.345 49.8898 208.576 49.6296 208.734 49.2899H210.924C210.693 50.1788 210.225 50.8799 209.534 51.3858C208.842 51.8989 208.014 52.1519 207.042 52.1519C206.25 52.1519 205.544 51.9712 204.917 51.6171C204.29 51.2629 203.801 50.7715 203.455 50.1355C203.109 49.5067 202.929 48.784 202.929 47.9745C202.929 47.1651 203.102 46.4423 203.455 45.8063V45.7991Z" fill="#015094"/>
<path d="M218.4 50.6342H215.346L214.856 52.0869H212.768L215.728 43.8767H218.033L220.993 52.0869H218.882L218.393 50.6342H218.4ZM217.889 49.0876L216.873 46.081L215.872 49.0876H217.889Z" fill="#015094"/>
<path d="M115.491 57.8544C115.318 57.6954 115.232 57.493 115.232 57.2545C115.232 57.016 115.318 56.8064 115.491 56.6474C115.664 56.4884 115.887 56.4089 116.161 56.4089C116.435 56.4089 116.651 56.4884 116.824 56.6474C116.997 56.8064 117.083 57.016 117.083 57.2545C117.083 57.493 116.997 57.6882 116.824 57.8544C116.651 58.0134 116.428 58.1001 116.161 58.1001C115.895 58.1001 115.664 58.0206 115.491 57.8544ZM116.939 58.6277V63.7302H115.383V58.6277H116.939Z" fill="#83CCB1"/>
<path d="M129.882 59.1553C130.235 59.5456 130.415 60.0732 130.415 60.7526V63.7302H128.866V60.9621C128.866 60.6225 128.78 60.3551 128.6 60.1671C128.42 59.9792 128.189 59.8853 127.887 59.8853C127.584 59.8853 127.354 59.9792 127.174 60.1671C126.993 60.3551 126.907 60.6225 126.907 60.9621V63.7302H125.351V58.6277H126.907V59.3071C127.066 59.0831 127.282 58.9024 127.548 58.7723C127.815 58.6422 128.117 58.5771 128.448 58.5771C129.046 58.5771 129.522 58.7723 129.874 59.1553H129.882Z" fill="#83CCB1"/>
<path d="M141.622 62.4003V63.7229H140.829C140.268 63.7229 139.821 63.5856 139.511 63.3037C139.202 63.0218 139.036 62.5738 139.036 61.945V59.9141H138.417V58.6132H139.036V57.3701H140.592V58.6132H141.614V59.9141H140.592V61.9594C140.592 62.1112 140.628 62.2196 140.7 62.2919C140.772 62.3642 140.894 62.3931 141.067 62.3931H141.622V62.4003Z" fill="#83CCB1"/>
<path d="M154.543 61.5548H151.014C151.035 61.8728 151.143 62.1113 151.316 62.2848C151.489 62.4582 151.712 62.5377 151.979 62.5377C152.368 62.5377 152.634 62.3715 152.793 62.0463H154.449C154.363 62.3787 154.212 62.6823 153.988 62.9497C153.765 63.2171 153.491 63.4267 153.153 63.5785C152.822 63.7302 152.447 63.8097 152.029 63.8097C151.532 63.8097 151.086 63.7013 150.697 63.4917C150.308 63.2822 150.005 62.9714 149.789 62.5739C149.573 62.1764 149.458 61.7138 149.458 61.1862C149.458 60.6587 149.566 60.1961 149.782 59.7986C149.998 59.4011 150.301 59.0976 150.69 58.8807C151.079 58.6639 151.525 58.5627 152.029 58.5627C152.533 58.5627 152.958 58.6639 153.34 58.8735C153.722 59.0831 154.024 59.3722 154.24 59.7625C154.457 60.1455 154.565 60.5936 154.565 61.1067C154.565 61.2513 154.557 61.4031 154.536 61.5621L154.543 61.5548ZM152.973 60.6876C152.973 60.4202 152.879 60.2033 152.699 60.0443C152.519 59.8853 152.289 59.8058 152.015 59.8058C151.741 59.8058 151.532 59.8853 151.352 60.0371C151.172 60.1889 151.064 60.4057 151.021 60.6876H152.973Z" fill="#83CCB1"/>
<path d="M165.556 58.7721C165.829 58.9167 166.031 59.1118 166.182 59.3503V58.6276H167.738V63.7228C167.738 64.1926 167.644 64.619 167.464 65.002C167.277 65.3851 166.996 65.6886 166.614 65.9127C166.233 66.1367 165.764 66.2524 165.195 66.2524C164.439 66.2524 163.834 66.0717 163.366 65.7175C162.898 65.3634 162.631 64.8792 162.567 64.2649H164.108C164.158 64.46 164.274 64.6118 164.454 64.7274C164.634 64.843 164.864 64.8936 165.131 64.8936C165.455 64.8936 165.707 64.7997 165.901 64.6118C166.089 64.4239 166.189 64.1275 166.189 63.7228V63.0001C166.038 63.2386 165.829 63.4337 165.563 63.5783C165.296 63.73 164.979 63.8023 164.626 63.8023C164.209 63.8023 163.827 63.6939 163.488 63.4771C163.15 63.2603 162.876 62.9567 162.682 62.552C162.487 62.1545 162.386 61.692 162.386 61.1644C162.386 60.6368 162.487 60.1815 162.682 59.784C162.876 59.3865 163.15 59.0829 163.488 58.8661C163.827 58.6493 164.209 58.5481 164.626 58.5481C164.987 58.5481 165.296 58.6204 165.57 58.7649L165.556 58.7721ZM165.858 60.2537C165.642 60.0297 165.383 59.914 165.073 59.914C164.763 59.914 164.497 60.0225 164.281 60.2465C164.065 60.4705 163.957 60.7741 163.957 61.1644C163.957 61.5546 164.065 61.8654 164.281 62.0895C164.497 62.3207 164.756 62.4291 165.073 62.4291C165.39 62.4291 165.642 62.3135 165.858 62.0895C166.074 61.8654 166.182 61.5546 166.182 61.1644C166.182 60.7741 166.074 60.4633 165.858 60.2393V60.2537Z" fill="#83CCB1"/>
<path d="M178.397 58.8156C178.671 58.6566 178.974 58.5771 179.305 58.5771V60.2322H178.88C178.491 60.2322 178.203 60.3189 178.008 60.4851C177.814 60.6514 177.713 60.9477 177.713 61.3669V63.7374H176.157V58.635H177.713V59.4878C177.893 59.2059 178.124 58.9891 178.397 58.8229V58.8156Z" fill="#83CCB1"/>
<path d="M187.329 59.7913C187.523 59.3938 187.797 59.0902 188.135 58.8734C188.474 58.6566 188.855 58.5554 189.273 58.5554C189.633 58.5554 189.943 58.6277 190.217 58.7722C190.49 58.9168 190.692 59.1119 190.843 59.3504V58.6277H192.399V63.7301H190.843V63.0074C190.692 63.2459 190.483 63.4338 190.209 63.5856C189.936 63.7301 189.626 63.8024 189.266 63.8024C188.855 63.8024 188.474 63.694 188.135 63.4772C187.797 63.2604 187.523 62.9568 187.329 62.5521C187.134 62.1546 187.033 61.6921 187.033 61.1645C187.033 60.6369 187.134 60.1816 187.329 59.7841V59.7913ZM190.519 60.2538C190.303 60.0298 190.044 59.9141 189.734 59.9141C189.424 59.9141 189.158 60.0226 188.942 60.2466C188.726 60.4706 188.618 60.7742 188.618 61.1645C188.618 61.5547 188.726 61.8655 188.942 62.0896C189.158 62.3208 189.417 62.4292 189.734 62.4292C190.051 62.4292 190.303 62.3136 190.519 62.0896C190.735 61.8655 190.843 61.5547 190.843 61.1645C190.843 60.7742 190.735 60.4634 190.519 60.2394V60.2538Z" fill="#83CCB1"/>
<path d="M200.812 59.7913C201.006 59.3938 201.28 59.0903 201.618 58.8735C201.957 58.6567 202.338 58.5555 202.756 58.5555C203.088 58.5555 203.397 58.6278 203.671 58.7651C203.945 58.9096 204.168 59.0975 204.319 59.3288V56.9583H205.875V63.723H204.319V62.993C204.175 63.2388 203.966 63.4339 203.693 63.5784C203.426 63.723 203.109 63.7952 202.749 63.7952C202.331 63.7952 201.95 63.6868 201.611 63.47C201.272 63.2532 200.999 62.9497 200.804 62.5449C200.61 62.1474 200.509 61.6849 200.509 61.1573C200.509 60.6297 200.61 60.1744 200.804 59.7769L200.812 59.7913ZM204.002 60.2539C203.786 60.0298 203.527 59.9142 203.217 59.9142C202.907 59.9142 202.641 60.0226 202.425 60.2467C202.209 60.4707 202.101 60.7742 202.101 61.1645C202.101 61.5548 202.209 61.8656 202.425 62.0896C202.641 62.3209 202.9 62.4293 203.217 62.4293C203.534 62.4293 203.786 62.3137 204.002 62.0896C204.218 61.8656 204.326 61.5548 204.326 61.1645C204.326 60.7742 204.218 60.4635 204.002 60.2394V60.2539Z" fill="#83CCB1"/>
<path d="M214.287 59.7913C214.482 59.3938 214.755 59.0902 215.094 58.8734C215.432 58.6566 215.814 58.5554 216.232 58.5554C216.592 58.5554 216.902 58.6277 217.175 58.7722C217.449 58.9168 217.651 59.1119 217.802 59.3504V58.6277H219.358V63.7301H217.802V63.0074C217.651 63.2459 217.442 63.4338 217.168 63.5856C216.895 63.7301 216.585 63.8024 216.225 63.8024C215.814 63.8024 215.432 63.694 215.094 63.4772C214.755 63.2604 214.482 62.9568 214.287 62.5521C214.093 62.1546 213.992 61.6921 213.992 61.1645C213.992 60.6369 214.093 60.1816 214.287 59.7841V59.7913ZM217.478 60.2538C217.262 60.0298 217.003 59.9141 216.693 59.9141C216.383 59.9141 216.117 60.0226 215.901 60.2466C215.685 60.4706 215.576 60.7742 215.576 61.1645C215.576 61.5547 215.685 61.8655 215.901 62.0896C216.117 62.3208 216.376 62.4292 216.693 62.4292C217.01 62.4292 217.262 62.3136 217.478 62.0896C217.694 61.8655 217.802 61.5547 217.802 61.1645C217.802 60.7742 217.694 60.4634 217.478 60.2394V60.2538Z" fill="#83CCB1"/>
<path d="M98.8608 46.1027C96.7001 57.4568 87.4305 61.8582 76.6845 59.1624C73.5946 58.3891 72.2694 63.1808 75.3664 63.9541C88.5901 67.2714 100.964 61.4751 103.636 47.4253C104.234 44.2959 99.4586 42.9589 98.8608 46.1027Z" fill="#015094"/>
</g>
<defs>
<clipPath id="clip0_1_33">
<rect width="221" height="74" fill="white"/>
</clipPath>
</defs>
</svg>
