<svg width="352" height="118" viewBox="0 0 352 118" fill="none" xmlns="http://www.w3.org/2000/svg">
<g clip-path="url(#clip0_1_190)">
<path d="M160.249 74.5985C160.249 88.3588 139.761 105.911 119.995 95.239C119.995 95.239 133.876 92.2657 142.766 87.3677C152.77 81.859 160.238 74.5985 160.238 74.5985H160.249Z" fill="#E16782"/>
<path d="M98.1364 48.6788C100.251 41.9075 98.4814 35.32 94.1834 33.9652C89.8853 32.6104 84.6866 37.0014 82.5717 43.7727C80.4569 50.544 82.2267 57.1315 86.5248 58.4863C90.8228 59.841 96.0216 55.4501 98.1364 48.6788Z" fill="#83CCB1"/>
<path d="M148.363 50.3182C151.895 44.1722 151.596 37.3556 147.695 35.0929C143.794 32.8302 137.768 35.9782 134.236 42.1242C130.703 48.2702 131.003 55.0868 134.904 57.3495C138.805 59.6122 144.831 56.4642 148.363 50.3182Z" fill="#83CCB1"/>
<path d="M104.391 92.2098C108.452 79.2076 108.25 67.566 103.94 66.2074C99.6299 64.8488 92.8438 74.2877 88.7829 87.2898C84.722 100.292 84.924 111.934 89.2342 113.292C93.5443 114.651 100.33 105.212 104.391 92.2098Z" fill="#F0CA83"/>
<path d="M1.56016 51.9415C0.791553 48.6224 0.344153 45.2919 0.206492 41.9497C0.0688307 38.6191 0 36.1874 0 34.6893C0 30.9322 0.172077 27.1291 0.504758 23.2454C0.688307 21.1248 0.952157 18.601 1.28484 15.6852C1.61752 12.7695 1.96167 10.0843 2.29436 7.66415C2.62704 5.23247 2.87942 3.6997 3.02855 3.05433C3.45301 1.67138 4.07248 0.81856 4.88698 0.495872C5.70147 0.173185 6.36684 0.0118408 6.88307 0.0118408C7.49107 0.0118408 8.11055 0.16166 8.71855 0.472823C9.85426 0.991429 10.6573 2.05169 11.1506 3.6536C11.2997 4.17221 11.38 5.17484 11.38 6.64999C11.38 9.35826 11.1047 13.6454 10.554 19.5229C10.1296 23.8907 9.8772 27.6362 9.81984 30.7594C9.76248 33.8825 9.72807 36.1529 9.72807 37.5589C9.72807 40.0251 9.78543 42.065 9.91162 43.6899C10.4623 50.6392 11.4947 54.6613 13.009 55.7562C14.5233 56.851 15.8769 57.3926 17.07 57.3926C19.2382 57.3926 22.0946 56.4246 25.6165 54.4884C27.3602 53.6011 29.1268 52.656 30.9164 51.6534C32.706 50.6508 34.1171 49.8325 35.161 49.1872C35.5281 48.9451 35.9296 48.7377 36.3541 48.5648C36.7785 48.392 37.0997 48.3113 37.3177 48.3113C38.6599 48.3113 39.5891 48.7492 40.0939 49.6251C40.5986 50.501 40.851 51.2731 40.851 51.953C40.851 52.5408 40.7133 53.1401 40.438 53.7509C40.2889 53.9929 40.0136 54.2925 39.635 54.6498C39.2564 55.0071 38.8434 55.3297 38.419 55.6409C37.6504 56.1365 36.3999 56.8971 34.6562 57.9228C32.9125 58.96 31.1344 59.9741 29.3333 60.9883C25.0429 63.4776 21.7734 64.9067 19.502 65.2754C17.2421 65.6442 15.7049 65.8286 14.9133 65.8286C12.2174 65.8286 9.81984 65.0104 7.70903 63.3854C4.97875 61.2879 2.93677 57.4848 1.56016 51.9415Z" fill="white"/>
<path d="M48.2043 32.7528C51.0837 33.064 52.5177 34.7696 52.5177 37.8697C52.5177 38.3307 52.4833 39.0913 52.4259 40.1516C52.3686 41.2118 52.2883 42.2836 52.1965 43.3554C52.1047 44.5539 52.0588 45.6603 52.0588 46.6745C52.0588 48.6452 52.2424 50.3162 52.6095 51.6992C53.7108 55.4562 55.0071 57.5191 56.4869 57.8994C57.9668 58.2797 58.9878 58.4756 59.5384 58.4756C61.5919 58.4756 63.8403 57.5537 66.2838 55.7097C68.4864 54.0156 70.9069 51.6992 73.534 48.7489C74.0273 48.2303 74.8418 47.3429 75.9889 46.0982C77.1361 44.8536 78.2948 43.6435 79.4534 42.4795C80.5203 41.4654 81.4839 40.9583 82.3443 40.9583C82.5279 40.9583 82.7114 40.9929 82.895 41.0505C83.8701 41.3271 84.4895 41.8341 84.7534 42.5717C85.0172 43.3093 85.1434 43.9086 85.1434 44.3696C85.1434 45.0149 84.9943 45.6603 84.6846 46.3057C84.3748 46.9165 83.8701 47.7693 83.1473 48.8641C82.4246 49.959 81.6904 51.0423 80.9448 52.1371C80.1991 53.2319 79.6026 54.0502 79.1781 54.6034C76.792 57.715 73.9584 60.3887 70.689 62.6245C67.4081 64.8717 64.6319 66.2317 62.3375 66.7042C60.0432 67.1767 58.3568 67.4187 57.2899 67.4187C55.053 67.4187 52.9307 66.9231 50.9116 65.9435C48.1584 64.4338 46.082 62.152 44.671 59.0979C43.26 56.0439 42.4799 53.3818 42.3308 51.1229C42.1816 48.8641 42.1013 47.3198 42.1013 46.4901C42.1013 43.632 42.4111 40.8661 43.0191 38.1809C43.2944 36.7057 43.7762 35.4265 44.4645 34.3547C45.1528 33.2829 46.2656 32.7413 47.7913 32.7413H48.2043V32.7528ZM49.535 20.9862C48.8582 20.6174 48.2961 20.0988 47.8372 19.4189C47.3783 18.7389 47.1489 18.0936 47.1489 17.4827C47.1489 16.2266 47.5734 15.2239 48.4337 14.4864C49.2941 13.7488 50.4413 13.38 51.8753 13.38C52.7357 13.38 53.3322 13.4376 53.6649 13.5413C53.9975 13.6451 54.3876 13.9217 54.812 14.3481C55.7298 15.2124 56.2001 15.9269 56.2116 16.5147C56.2231 17.1024 56.2345 17.4021 56.2345 17.4367C56.2345 18.543 55.8101 19.5341 54.9497 20.3869C54.617 20.7557 54.2729 21.0093 53.9172 21.1476C53.5616 21.2859 53.0339 21.3665 52.3341 21.4011C52.0932 21.4357 51.8638 21.4472 51.6458 21.4472C50.7855 21.4472 50.0857 21.2974 49.535 20.9862Z" fill="white"/>
<path d="M79.878 90.9633C81.4955 86.7799 83.4916 82.9077 85.8433 79.335C87.8623 76.3502 90.4549 73.0657 93.5982 69.4815C96.7529 65.8974 99.7815 62.7973 102.684 60.1812L104.382 58.7061L103.969 55.387C103.82 54.0041 103.636 52.6096 103.418 51.1921C103.2 49.7745 103.005 48.599 102.822 47.6656C102.638 46.7321 102.5 46.248 102.409 46.2135C102.351 46.2135 102.145 46.5246 101.812 47.1585C101.479 47.7923 101.089 48.5645 100.665 49.4864C97.1774 56.8045 93.1852 61.5527 88.6768 63.7423C86.784 64.6989 85.3041 65.1829 84.2487 65.1944C83.1933 65.2059 82.6312 65.2175 82.5738 65.2175C80.5548 65.2175 78.7423 64.4914 77.1592 63.0508C75.1401 60.9879 74.1306 58.1414 74.1306 54.5111V54.3267C74.1306 50.6389 75.1745 46.6744 77.2509 42.4219C78.8455 39.1258 80.7613 36.406 82.9868 34.2625C86.566 30.759 90.5352 28.8344 94.8831 28.5002C95.3419 28.4656 95.8008 28.4541 96.2597 28.4541C101.984 28.4541 106.102 30.7936 108.615 35.461C109.315 36.8786 110.049 38.7571 110.794 41.085C111.54 43.4245 112.194 45.7755 112.745 48.1381C112.963 49.1522 113.146 50.0166 113.318 50.7196C113.49 51.4226 113.582 51.7913 113.616 51.8259C113.708 51.8259 113.972 51.6991 114.397 51.4571C114.89 51.1805 115.463 50.8233 116.14 50.3969C117.792 49.3827 119.547 48.334 121.394 47.2622C123.253 46.1904 124.87 45.2684 126.258 44.5193C127.646 43.7702 128.518 43.3438 128.851 43.2516C129.069 43.2171 129.264 43.2055 129.448 43.2055C130.606 43.2055 131.593 43.655 132.384 44.5424C133.084 45.3491 133.44 46.248 133.44 47.2622C133.44 47.5964 133.394 47.9537 133.302 48.3224C133.118 49.8898 129.929 52.333 123.746 55.6521C122.863 56.1476 121.842 56.7239 120.695 57.3808C119.547 58.0377 118.561 58.6369 117.735 59.1555L114.798 60.9995V69.205C114.798 72.282 114.764 74.7137 114.683 76.4885C114.603 78.2748 114.465 79.8767 114.247 81.2827C113.089 89.7994 111.035 97.0253 108.099 102.96C104.886 109.207 101.537 113.263 98.0607 115.142C94.5848 117.02 91.6136 117.954 89.1357 117.954C87.7591 117.954 86.4284 117.723 85.1435 117.262C81.5643 116.006 79.3388 113.874 78.4899 110.901C77.6295 107.916 77.2051 105.519 77.2051 103.71C77.2051 100.079 78.0884 95.8267 79.8665 90.9288L79.878 90.9633ZM90.1682 52.1256C92.4281 49.1176 94.5045 45.2569 96.3629 40.5434L97.0053 38.976H96.1335C94.298 38.976 92.3822 39.898 90.3976 41.7419C88.413 43.5859 86.7955 45.9369 85.5794 48.795C84.4208 51.7452 83.8357 53.8542 83.8357 55.1104C83.8357 55.9402 84.0766 56.4127 84.5699 56.5395C84.6617 56.574 84.7535 56.5856 84.8452 56.5856C86.0727 56.5856 87.8394 55.0989 90.1682 52.114V52.1256ZM99.5406 97.7513C102.913 90.0068 104.657 81.4671 104.772 72.1552V69.2972L102.156 72.017C95.0207 79.554 90.2485 86.6186 87.8279 93.2337C86.3939 97.5439 85.6712 100.967 85.6712 103.525C85.6712 104.781 85.8548 105.83 86.2219 106.66C86.8987 108.227 87.8738 109.011 89.1586 109.011C89.9272 109.011 90.7991 108.734 91.7742 108.181C94.4357 106.74 97.0283 103.26 99.5291 97.7513H99.5406Z" fill="white"/>
<path d="M123.368 60.792C122.45 58.7291 121.991 56.574 121.991 54.3382C121.991 50.2816 123.471 45.8792 126.442 41.1426C129.046 37.2358 132.327 34.1933 136.296 32.0152C140.266 29.837 144.384 28.7422 148.674 28.7422C149.076 28.7422 149.466 28.7537 149.867 28.7883C150.877 28.8459 151.703 28.9612 152.345 29.134C152.988 29.3069 153.802 29.6526 154.777 30.1712C155.477 30.5054 156.142 30.8166 156.773 31.0932C157.404 31.3698 157.852 31.5427 158.127 31.6003C158.402 31.6579 158.712 31.7731 159.068 31.946C159.423 32.1189 159.733 32.3033 160.008 32.5222C160.8 33.0754 161.397 33.8821 161.775 34.9424C162.154 36.0027 162.452 37.6852 162.67 39.9902C163.129 44.6346 163.714 48.0804 164.414 50.3277C165.733 54.1999 166.914 56.1361 167.97 56.1361H169.599C171.652 56.1361 173.763 55.1334 175.931 53.1397C178.099 51.1459 180.05 49.0485 181.759 46.8703C185.464 42.2259 187.862 39.7942 188.963 39.5868C189.273 39.5292 189.548 39.4946 189.789 39.4946C190.925 39.4946 191.866 39.9095 192.634 40.7393C193.334 41.4768 193.69 42.3412 193.69 43.3208C193.69 43.6895 193.644 44.0699 193.552 44.4732C193.127 45.5796 191.934 47.3428 189.996 49.7745C188.057 52.2062 186.026 54.465 183.916 56.551C178.65 61.8983 173.706 64.572 169.083 64.572H168.761C165.825 64.5144 163.347 63.6847 161.351 62.0827C159.343 60.4808 157.726 58.4756 156.51 56.0439C155.282 53.6122 154.341 51.1344 153.665 48.6221L151.921 51.2036C150.636 53.1051 149.431 54.7301 148.319 56.0669C147.194 57.4038 145.967 58.7176 144.625 60.0083C142.571 61.979 140.587 63.4426 138.659 64.3877C136.457 65.5286 134.231 66.0933 132.006 66.0933C131.363 66.0933 130.721 66.0472 130.079 65.955C127.199 65.5286 124.962 63.7999 123.379 60.792H123.368ZM138.889 53.9234C140.851 52.3214 142.514 50.6043 143.891 48.7604C144.659 47.7462 145.474 46.5361 146.346 45.1416C147.217 43.7472 147.917 42.5486 148.433 41.546C148.95 40.5433 149.214 39.9441 149.214 39.7251C149.214 39.6905 149.202 39.6675 149.168 39.6329H149.076C148.709 39.6329 148.066 39.7712 147.149 40.0478C146.105 40.382 145.026 40.7854 143.914 41.2463C142.801 41.7073 141.917 42.1337 141.275 42.5371C140.048 43.3323 138.866 44.3925 137.719 45.6948C136.572 46.9971 135.665 48.3224 134.988 49.6362C133.761 52.1601 133.153 54.0156 133.153 55.2141C133.153 55.5829 133.21 55.8941 133.337 56.1361C133.486 56.3781 133.738 56.5049 134.071 56.5049C134.988 56.5049 136.595 55.6405 138.889 53.9234Z" fill="white"/>
<path d="M182.78 82.3199C181.759 81.7437 180.944 80.9485 180.348 79.9228C179.751 78.8971 179.453 77.7446 179.453 76.4654C179.453 75.1862 179.751 74.0337 180.348 73.0196C180.944 72.0054 181.759 71.2102 182.78 70.634C183.801 70.0578 184.925 69.7697 186.153 69.7697C187.38 69.7697 188.504 70.0578 189.525 70.634C190.546 71.1987 191.349 72.0054 191.934 73.0196C192.519 74.0337 192.818 75.1862 192.818 76.4654C192.818 77.7446 192.519 78.8971 191.923 79.9228C191.326 80.9485 190.523 81.7437 189.514 82.3199C188.504 82.8961 187.38 83.1727 186.153 83.1727C184.925 83.1727 183.801 82.8846 182.78 82.3199ZM188.642 79.2198C189.262 78.5283 189.583 77.6064 189.583 76.4654C189.583 75.3245 189.273 74.391 188.642 73.6995C188.023 73.0081 187.185 72.6623 186.153 72.6623C185.12 72.6623 184.26 73.0081 183.64 73.688C183.021 74.368 182.7 75.3014 182.7 76.4654C182.7 77.6294 183.009 78.5398 183.64 79.2313C184.271 79.9228 185.097 80.2685 186.153 80.2685C187.208 80.2685 188.023 79.9228 188.642 79.2198Z" fill="white"/>
<path d="M204.909 70.7838C205.93 71.3255 206.733 72.0976 207.295 73.0887C207.857 74.0798 208.144 75.2208 208.144 76.5115C208.144 77.8023 207.857 78.9317 207.295 79.9228C206.733 80.9139 205.93 81.6861 204.898 82.2392C203.865 82.7809 202.672 83.0575 201.307 83.0575H196.431V69.9656H201.307C202.684 69.9656 203.877 70.2422 204.909 70.7838ZM203.911 79.3005C204.576 78.6436 204.909 77.7101 204.909 76.5C204.909 75.2899 204.576 74.3564 203.911 73.688C203.246 73.0196 202.305 72.6854 201.112 72.6854H199.609V80.2916H201.112C202.305 80.2916 203.246 79.9574 203.911 79.3005Z" fill="white"/>
<path d="M214.568 82.3199C213.547 81.7437 212.733 80.9485 212.136 79.9228C211.54 78.8971 211.241 77.7446 211.241 76.4654C211.241 75.1862 211.54 74.0337 212.136 73.0196C212.733 72.0054 213.547 71.2102 214.568 70.634C215.589 70.0578 216.713 69.7697 217.941 69.7697C219.168 69.7697 220.293 70.0578 221.314 70.634C222.335 71.1987 223.138 72.0054 223.723 73.0196C224.308 74.0337 224.606 75.1862 224.606 76.4654C224.606 77.7446 224.308 78.8971 223.711 79.9228C223.115 80.9485 222.312 81.7437 221.302 82.3199C220.293 82.8961 219.168 83.1727 217.941 83.1727C216.713 83.1727 215.589 82.8846 214.568 82.3199ZM220.43 79.2198C221.05 78.5283 221.371 77.6064 221.371 76.4654C221.371 75.3245 221.061 74.391 220.43 73.6995C219.811 73.0081 218.973 72.6623 217.941 72.6623C216.909 72.6623 216.048 73.0081 215.429 73.688C214.809 74.368 214.488 75.3014 214.488 76.4654C214.488 77.6294 214.798 78.5398 215.429 79.2313C216.06 79.9228 216.886 80.2685 217.941 80.2685C218.996 80.2685 219.811 79.9228 220.43 79.2198Z" fill="white"/>
<path d="M239.864 83.046H236.686L231.374 74.9788V83.046H228.197V69.9541H231.374L236.686 78.0674V69.9541H239.864V83.046Z" fill="white"/>
<path d="M253.4 69.9656V72.524H249.947V83.0575H246.769V72.524H243.316V69.9656H253.389H253.4Z" fill="white"/>
<path d="M259.641 82.3199C258.62 81.7437 257.805 80.9485 257.209 79.9228C256.612 78.8971 256.314 77.7446 256.314 76.4654C256.314 75.1862 256.612 74.0337 257.209 73.0196C257.805 72.0054 258.62 71.2102 259.641 70.634C260.662 70.0578 261.786 69.7697 263.013 69.7697C264.241 69.7697 265.365 70.0578 266.386 70.634C267.407 71.1987 268.21 72.0054 268.795 73.0196C269.38 74.0337 269.679 75.1862 269.679 76.4654C269.679 77.7446 269.38 78.8971 268.784 79.9228C268.187 80.9485 267.384 81.7437 266.375 82.3199C265.365 82.8961 264.241 83.1727 263.013 83.1727C261.786 83.1727 260.662 82.8846 259.641 82.3199ZM265.503 79.2198C266.122 78.5283 266.444 77.6064 266.444 76.4654C266.444 75.3245 266.134 74.391 265.503 73.6995C264.883 73.0081 264.046 72.6623 263.013 72.6623C261.981 72.6623 261.121 73.0081 260.501 73.688C259.882 74.368 259.56 75.3014 259.56 76.4654C259.56 77.6294 259.87 78.5398 260.501 79.2313C261.132 79.9228 261.958 80.2685 263.013 80.2685C264.069 80.2685 264.883 79.9228 265.503 79.2198Z" fill="white"/>
<path d="M276.458 80.5912H280.611V83.0575H273.281V69.9656H276.458V80.5912Z" fill="white"/>
<path d="M286.783 82.3199C285.762 81.7437 284.948 80.9485 284.351 79.9228C283.755 78.8971 283.456 77.7447 283.456 76.4654C283.456 75.1862 283.755 74.0338 284.351 73.0196C284.948 72.0054 285.762 71.2102 286.783 70.634C287.804 70.0578 288.928 69.7697 290.156 69.7697C291.383 69.7697 292.508 70.0578 293.529 70.634C294.55 71.1987 295.353 72.0054 295.938 73.0196C296.523 74.0338 296.821 75.1862 296.821 76.4654C296.821 77.7447 296.523 78.8971 295.926 79.9228C295.33 80.9485 294.527 81.7437 293.517 82.3199C292.508 82.8962 291.383 83.1727 290.156 83.1727C288.928 83.1727 287.804 82.8846 286.783 82.3199ZM292.645 79.2198C293.265 78.5283 293.586 77.6064 293.586 76.4654C293.586 75.3245 293.276 74.391 292.645 73.6995C292.026 73.0081 291.188 72.6623 290.156 72.6623C289.123 72.6623 288.263 73.0081 287.644 73.688C287.024 74.368 286.703 75.3015 286.703 76.4654C286.703 77.6294 287.013 78.5399 287.644 79.2313C288.274 79.9228 289.1 80.2686 290.156 80.2686C291.211 80.2686 292.026 79.9228 292.645 79.2198ZM292.301 67.3265L287.827 69.205V67.0038L292.301 64.8372V67.3149V67.3265Z" fill="white"/>
<path d="M309.084 74.103C308.843 73.665 308.511 73.3308 308.075 73.1003C307.639 72.8698 307.123 72.7546 306.526 72.7546C305.505 72.7546 304.679 73.0888 304.06 73.7688C303.44 74.4487 303.13 75.3476 303.13 76.477C303.13 77.6871 303.452 78.6206 304.105 79.3005C304.759 79.9805 305.643 80.3147 306.79 80.3147C307.57 80.3147 308.224 80.1188 308.763 79.7154C309.302 79.3236 309.692 78.7474 309.945 77.9983H305.918V75.6473H312.824V78.6091C312.595 79.4043 312.193 80.1418 311.631 80.8218C311.069 81.5017 310.358 82.0549 309.486 82.4813C308.625 82.9077 307.639 83.1152 306.549 83.1152C305.264 83.1152 304.117 82.8271 303.107 82.2623C302.098 81.6976 301.318 80.914 300.756 79.8998C300.194 78.8972 299.907 77.7447 299.907 76.454C299.907 75.1632 300.182 74.0108 300.756 72.9966C301.329 71.9824 302.098 71.1988 303.107 70.6341C304.105 70.0694 305.253 69.7812 306.537 69.7812C308.098 69.7812 309.405 70.1616 310.484 70.9222C311.551 71.6828 312.262 72.7315 312.606 74.0684H309.096L309.084 74.103Z" fill="white"/>
<path d="M319.604 69.9656V83.0575H316.426V69.9656H319.604Z" fill="white"/>
<path d="M324.055 73.0311C324.606 72.017 325.386 71.2333 326.384 70.6686C327.382 70.1039 328.506 69.8158 329.768 69.8158C331.317 69.8158 332.636 70.2307 333.737 71.0489C334.838 71.8672 335.573 72.985 335.951 74.4026H332.464C332.2 73.8609 331.833 73.446 331.362 73.1579C330.881 72.8698 330.341 72.7315 329.733 72.7315C328.758 72.7315 327.967 73.0772 327.359 73.7572C326.751 74.4371 326.453 75.3591 326.453 76.5C326.453 77.641 326.751 78.5629 327.359 79.2429C327.967 79.9228 328.758 80.2686 329.733 80.2686C330.341 80.2686 330.881 80.1303 331.362 79.8422C331.844 79.554 332.211 79.1392 332.464 78.5975H335.951C335.584 80.015 334.838 81.1329 333.737 81.9396C332.636 82.7579 331.317 83.1612 329.768 83.1612C328.506 83.1612 327.382 82.8731 326.384 82.3084C325.386 81.7437 324.606 80.96 324.055 79.9459C323.504 78.9433 323.218 77.7908 323.218 76.5C323.218 75.2093 323.493 74.0568 324.055 73.0427V73.0311Z" fill="white"/>
<path d="M347.859 80.741H342.995L342.215 83.0575H338.888L343.603 69.9656H347.274L351.989 83.0575H348.627L347.847 80.741H347.859ZM347.044 78.2748L345.427 73.4806L343.832 78.2748H347.044Z" fill="white"/>
<path d="M183.95 92.2541C183.675 92.0006 183.537 91.6779 183.537 91.2976C183.537 90.9173 183.675 90.5831 183.95 90.3295C184.225 90.076 184.581 89.9492 185.017 89.9492C185.453 89.9492 185.797 90.076 186.072 90.3295C186.347 90.5831 186.485 90.9173 186.485 91.2976C186.485 91.6779 186.347 91.9891 186.072 92.2541C185.797 92.5077 185.441 92.646 185.017 92.646C184.592 92.646 184.225 92.5192 183.95 92.2541ZM186.256 93.4873V101.624H183.778V93.4873H186.256Z" fill="#83CCB1"/>
<path d="M206.871 94.3286C207.433 94.9509 207.719 95.7922 207.719 96.8755V101.624H205.253V97.2097C205.253 96.6681 205.115 96.2417 204.829 95.942C204.542 95.6424 204.175 95.4926 203.693 95.4926C203.211 95.4926 202.844 95.6424 202.557 95.942C202.27 96.2417 202.133 96.6681 202.133 97.2097V101.624H199.655V93.4873H202.133V94.5706C202.385 94.2133 202.729 93.9252 203.154 93.7178C203.578 93.5103 204.06 93.4066 204.588 93.4066C205.54 93.4066 206.297 93.7178 206.859 94.3286H206.871Z" fill="#83CCB1"/>
<path d="M225.57 99.503V101.612H224.308C223.413 101.612 222.702 101.393 222.208 100.944C221.715 100.494 221.451 99.7796 221.451 98.777V95.5386H220.465V93.4642H221.451V91.4819H223.929V93.4642H225.558V95.5386H223.929V98.8C223.929 99.0421 223.986 99.2149 224.101 99.3302C224.216 99.4454 224.411 99.4915 224.686 99.4915H225.57V99.503Z" fill="#83CCB1"/>
<path d="M246.15 98.1547H240.529C240.563 98.6618 240.735 99.0421 241.011 99.3187C241.286 99.5953 241.641 99.7221 242.066 99.7221C242.685 99.7221 243.11 99.457 243.362 98.9384H246.001C245.863 99.4685 245.622 99.9525 245.267 100.379C244.911 100.805 244.475 101.14 243.936 101.382C243.408 101.624 242.812 101.75 242.146 101.75C241.355 101.75 240.643 101.578 240.024 101.243C239.404 100.909 238.923 100.414 238.578 99.7797C238.234 99.1458 238.051 98.4083 238.051 97.567C238.051 96.7257 238.223 95.9881 238.567 95.3542C238.911 94.7204 239.393 94.2364 240.012 93.8906C240.632 93.5449 241.343 93.3835 242.146 93.3835C242.949 93.3835 243.626 93.5449 244.234 93.8791C244.842 94.2133 245.324 94.6743 245.668 95.2966C246.012 95.9074 246.184 96.622 246.184 97.4402C246.184 97.6707 246.173 97.9127 246.138 98.1662L246.15 98.1547ZM243.649 96.7718C243.649 96.3454 243.5 95.9996 243.213 95.7461C242.926 95.4925 242.559 95.3658 242.123 95.3658C241.687 95.3658 241.355 95.4925 241.068 95.7346C240.781 95.9766 240.609 96.3223 240.54 96.7718H243.649Z" fill="#83CCB1"/>
<path d="M263.69 93.7177C264.126 93.9482 264.447 94.2594 264.688 94.6397V93.4872H267.166V101.612C267.166 102.361 267.017 103.041 266.73 103.652C266.432 104.263 265.985 104.747 265.377 105.104C264.769 105.461 264.023 105.646 263.117 105.646C261.912 105.646 260.948 105.358 260.203 104.793C259.457 104.228 259.033 103.456 258.929 102.476H261.384C261.465 102.788 261.648 103.03 261.935 103.214C262.222 103.398 262.589 103.479 263.013 103.479C263.53 103.479 263.931 103.329 264.241 103.03C264.539 102.73 264.7 102.257 264.7 101.612V100.46C264.459 100.84 264.126 101.151 263.702 101.382C263.277 101.624 262.772 101.739 262.21 101.739C261.545 101.739 260.937 101.566 260.398 101.22C259.859 100.874 259.423 100.39 259.113 99.7451C258.803 99.1112 258.643 98.3737 258.643 97.5324C258.643 96.6911 258.803 95.965 259.113 95.3312C259.423 94.6973 259.859 94.2133 260.398 93.8675C260.937 93.5218 261.545 93.3605 262.21 93.3605C262.784 93.3605 263.277 93.4757 263.713 93.7062L263.69 93.7177ZM264.172 96.0803C263.828 95.723 263.415 95.5386 262.922 95.5386C262.428 95.5386 262.004 95.7115 261.66 96.0687C261.315 96.426 261.143 96.91 261.143 97.5324C261.143 98.1547 261.315 98.6503 261.66 99.0075C262.004 99.3763 262.417 99.5492 262.922 99.5492C263.426 99.5492 263.828 99.3648 264.172 99.0075C264.516 98.6503 264.688 98.1547 264.688 97.5324C264.688 96.91 264.516 96.4145 264.172 96.0572V96.0803Z" fill="#83CCB1"/>
<path d="M284.144 93.7869C284.58 93.5334 285.062 93.4066 285.59 93.4066V96.0457H284.913C284.294 96.0457 283.835 96.184 283.525 96.4491C283.215 96.7142 283.055 97.1867 283.055 97.8551V101.635H280.577V93.4988H283.055V94.8587C283.341 94.4092 283.708 94.0635 284.144 93.7984V93.7869Z" fill="#83CCB1"/>
<path d="M298.369 95.3427C298.679 94.7088 299.115 94.2248 299.654 93.879C300.193 93.5333 300.801 93.3719 301.467 93.3719C302.04 93.3719 302.534 93.4872 302.969 93.7177C303.405 93.9482 303.727 94.2593 303.968 94.6397V93.4872H306.445V101.624H303.968V100.471C303.727 100.851 303.394 101.151 302.958 101.393C302.522 101.624 302.029 101.739 301.455 101.739C300.801 101.739 300.193 101.566 299.654 101.22C299.115 100.874 298.679 100.39 298.369 99.745C298.06 99.1112 297.899 98.3736 297.899 97.5323C297.899 96.691 298.06 95.965 298.369 95.3311V95.3427ZM303.451 96.0802C303.107 95.723 302.694 95.5386 302.201 95.5386C301.708 95.5386 301.283 95.7114 300.939 96.0687C300.595 96.426 300.423 96.91 300.423 97.5323C300.423 98.1546 300.595 98.6502 300.939 99.0075C301.283 99.3763 301.696 99.5491 302.201 99.5491C302.706 99.5491 303.107 99.3647 303.451 99.0075C303.795 98.6502 303.968 98.1546 303.968 97.5323C303.968 96.91 303.795 96.4144 303.451 96.0572V96.0802Z" fill="#83CCB1"/>
<path d="M319.845 95.3427C320.154 94.7089 320.59 94.2248 321.129 93.8791C321.669 93.5333 322.277 93.372 322.942 93.372C323.47 93.372 323.963 93.4872 324.399 93.7062C324.835 93.9367 325.19 94.2363 325.431 94.6051V90.8251H327.909V101.612H325.431V100.448C325.202 100.84 324.869 101.151 324.433 101.382C324.009 101.612 323.504 101.727 322.93 101.727C322.265 101.727 321.657 101.554 321.118 101.209C320.579 100.863 320.143 100.379 319.833 99.7336C319.523 99.0997 319.363 98.3621 319.363 97.5209C319.363 96.6796 319.523 95.9535 319.833 95.3197L319.845 95.3427ZM324.927 96.0803C324.582 95.723 324.169 95.5386 323.676 95.5386C323.183 95.5386 322.758 95.7115 322.414 96.0688C322.07 96.426 321.898 96.91 321.898 97.5324C321.898 98.1547 322.07 98.6503 322.414 99.0075C322.758 99.3763 323.171 99.5492 323.676 99.5492C324.181 99.5492 324.582 99.3648 324.927 99.0075C325.271 98.6503 325.443 98.1547 325.443 97.5324C325.443 96.91 325.271 96.4145 324.927 96.0572V96.0803Z" fill="#83CCB1"/>
<path d="M341.308 95.3427C341.618 94.7088 342.054 94.2248 342.593 93.879C343.132 93.5333 343.74 93.3719 344.406 93.3719C344.979 93.3719 345.473 93.4872 345.908 93.7177C346.344 93.9482 346.666 94.2593 346.906 94.6397V93.4872H349.384V101.624H346.906V100.471C346.666 100.851 346.333 101.151 345.897 101.393C345.461 101.624 344.968 101.739 344.394 101.739C343.74 101.739 343.132 101.566 342.593 101.22C342.054 100.874 341.618 100.39 341.308 99.745C340.998 99.1112 340.838 98.3736 340.838 97.5323C340.838 96.691 340.998 95.965 341.308 95.3311V95.3427ZM346.39 96.0802C346.046 95.723 345.633 95.5386 345.14 95.5386C344.647 95.5386 344.222 95.7114 343.878 96.0687C343.534 96.426 343.362 96.91 343.362 97.5323C343.362 98.1546 343.534 98.6502 343.878 99.0075C344.222 99.3763 344.635 99.5491 345.14 99.5491C345.645 99.5491 346.046 99.3647 346.39 99.0075C346.734 98.6502 346.906 98.1546 346.906 97.5323C346.906 96.91 346.734 96.4144 346.39 96.0572V96.0802Z" fill="#83CCB1"/>
<path d="M157.462 73.5152C154.02 91.6203 139.256 98.6387 122.14 94.3401C117.219 93.1069 115.108 100.748 120.041 101.981C141.103 107.271 160.811 98.0279 165.067 75.6242C166.02 70.6341 158.414 68.502 157.462 73.5152Z" fill="white"/>
</g>
<defs>
<clipPath id="clip0_1_190">
<rect width="352" height="118" fill="white"/>
</clipPath>
</defs>
</svg>
