<svg width="96" height="96" viewBox="0 0 96 96" fill="none" xmlns="http://www.w3.org/2000/svg">
<rect width="96" height="96" rx="19.2" fill="#D3E8FF"/>
<path d="M9.02563 41.6667H86.9743" stroke="#2D64A2" stroke-width="2.5" stroke-linecap="round" stroke-linejoin="round"/>
<path d="M33.641 36.5386H25.4359C24.303 36.5386 23.3846 37.457 23.3846 38.5899V46.795C23.3846 47.9279 24.303 48.8463 25.4359 48.8463H33.641C34.7739 48.8463 35.6923 47.9279 35.6923 46.795V38.5899C35.6923 37.457 34.7739 36.5386 33.641 36.5386Z" stroke="#2D64A2" stroke-width="2.5" stroke-linecap="round" stroke-linejoin="round"/>
<path d="M29.5385 48.8463V45.7694" stroke="#2D64A2" stroke-width="2.5" stroke-linecap="round" stroke-linejoin="round"/>
<path d="M29.5385 41.6668V34.4873" stroke="#2D64A2" stroke-width="2.5" stroke-linecap="round" stroke-linejoin="round"/>
<path d="M69.5385 36.5386H61.3333C60.2004 36.5386 59.282 37.457 59.282 38.5899V46.795C59.282 47.9279 60.2004 48.8463 61.3333 48.8463H69.5385C70.6713 48.8463 71.5897 47.9279 71.5897 46.795V38.5899C71.5897 37.457 70.6713 36.5386 69.5385 36.5386Z" stroke="#2D64A2" stroke-width="2.5" stroke-linecap="round" stroke-linejoin="round"/>
<path d="M65.4359 48.8463V45.7694" stroke="#2D64A2" stroke-width="2.5" stroke-linecap="round" stroke-linejoin="round"/>
<path d="M65.4359 41.6668V34.4873" stroke="#2D64A2" stroke-width="2.5" stroke-linecap="round" stroke-linejoin="round"/>
<path d="M39.4487 32.4361C37.6744 29.3694 34.3615 27.3079 30.5641 27.3079C26.7667 27.3079 23.4538 29.3694 21.6795 32.4361" stroke="#2D64A2" stroke-width="2.5" stroke-linecap="round" stroke-linejoin="round"/>
<path d="M23.2615 30.3643C21.9692 29.1027 20.2051 28.3335 18.2564 28.3335C14.2872 28.3335 11.0769 31.5438 11.0769 35.513C11.0769 43.8617 19.3846 52.3745 19.1692 63.7797C19.0872 67.4104 20.6872 68.3335 22.2051 68.3335C24.6769 68.3335 26.0513 65.913 26.7692 59.2155C27.0667 56.4361 28.2872 53.9027 30.5641 53.9027C32.841 53.9027 34.0615 56.4361 34.359 59.2155C35.0769 65.913 36.4513 68.3335 38.9231 68.3335C40.441 68.3335 42.041 67.4104 41.959 63.7797C41.8154 56.0771 45.559 49.6873 48 43.7899" stroke="#2D64A2" stroke-width="2.5" stroke-linecap="round" stroke-linejoin="round"/>
<path d="M37.8667 30.3643C39.159 29.1027 40.9231 28.3335 42.8718 28.3335C44.8205 28.3335 46.7077 29.1643 48 30.4976" stroke="#2D64A2" stroke-width="2.5" stroke-linecap="round" stroke-linejoin="round"/>
<path d="M74.3205 32.4361C72.5461 29.3694 69.2333 27.3079 65.4359 27.3079C61.6385 27.3079 58.3256 29.3694 56.5513 32.4361" stroke="#2D64A2" stroke-width="2.5" stroke-linecap="round" stroke-linejoin="round"/>
<path d="M72.741 30.3643C74.0333 29.1079 75.8 28.3335 77.7436 28.3335C81.7077 28.3335 84.9231 31.5489 84.9231 35.513C84.9231 43.8617 76.6128 52.3797 76.8308 63.7745C76.9077 67.4053 75.3103 68.3335 73.7923 68.3335C71.3231 68.3335 69.9487 65.9104 69.2333 59.2155C68.9359 56.4361 67.7128 53.8976 65.4359 53.8976C63.159 53.8976 61.9333 56.4361 61.6385 59.2155C60.9231 65.9079 59.5487 68.3335 57.0795 68.3335C55.559 68.3335 53.9641 67.4079 54.041 63.7745C54.2615 52.3797 45.9487 43.8617 45.9487 35.513C45.9487 31.5489 49.1641 28.3335 53.1282 28.3335C55.0744 28.3335 56.8385 29.1079 58.1308 30.3643" stroke="#2D64A2" stroke-width="2.5" stroke-linecap="round" stroke-linejoin="round"/>
</svg>
