<svg width="96" height="96" viewBox="0 0 96 96" fill="none" xmlns="http://www.w3.org/2000/svg">
<path d="M0 19.2C0 8.59613 8.59613 0 19.2 0H76.8C87.4039 0 96 8.59613 96 19.2V76.8C96 87.4039 87.4039 96 76.8 96H19.2C8.59613 96 0 87.4039 0 76.8V19.2Z" fill="#D3E8FF"/>
<path d="M79.7949 73.9896L83.8974 78.0922" stroke="#2D64A2" stroke-width="2.5" stroke-linecap="round" stroke-linejoin="round"/>
<path d="M75.6923 75.0153V78.0922" stroke="#2D64A2" stroke-width="2.5" stroke-linecap="round" stroke-linejoin="round"/>
<path d="M80.8205 69.8871H83.8974" stroke="#2D64A2" stroke-width="2.5" stroke-linecap="round" stroke-linejoin="round"/>
<path d="M73.0718 59.046L74.5615 62.0665L77.8948 62.5512C78.6436 62.6588 78.941 63.5794 78.4 64.105L75.9871 66.4563L76.5564 69.7768C76.6846 70.5204 75.9025 71.0896 75.2333 70.7383L72.2513 69.1717L69.2692 70.7383C68.6 71.0896 67.8179 70.5229 67.9461 69.7768L68.5154 66.4563L66.1025 64.105C65.5615 63.5768 65.8589 62.6588 66.6077 62.5512L69.941 62.0665L71.4307 59.046C71.7641 58.3691 72.7307 58.3691 73.0641 59.046H73.0718Z" stroke="#2D64A2" stroke-width="2.5" stroke-linecap="round" stroke-linejoin="round"/>
<path d="M16.2051 73.9896L12.1025 78.0922" stroke="#2D64A2" stroke-width="2.5" stroke-linecap="round" stroke-linejoin="round"/>
<path d="M20.3077 75.0153V78.0922" stroke="#2D64A2" stroke-width="2.5" stroke-linecap="round" stroke-linejoin="round"/>
<path d="M15.1795 69.8871H12.1025" stroke="#2D64A2" stroke-width="2.5" stroke-linecap="round" stroke-linejoin="round"/>
<path d="M22.9282 59.046L21.4384 62.0665L18.1051 62.5512C17.3564 62.6588 17.0589 63.5794 17.6 64.105L20.0128 66.4563L19.4436 69.7768C19.3154 70.5204 20.0974 71.0896 20.7666 70.7383L23.7487 69.1717L26.7307 70.7383C27.4 71.0896 28.182 70.5229 28.0538 69.7768L27.4846 66.4563L29.8974 64.105C30.4384 63.5768 30.141 62.6588 29.3923 62.5512L26.0589 62.0665L24.5692 59.046C24.2359 58.3691 23.2692 58.3691 22.9359 59.046H22.9282Z" stroke="#2D64A2" stroke-width="2.5" stroke-linecap="round" stroke-linejoin="round"/>
<path d="M70.1744 29.8871H88C88 32.4307 86.9641 34.7486 85.2923 36.4102C84.3385 37.3743 83.159 38.123 81.8462 38.5845C80.8821 38.9332 79.8462 39.1179 78.7693 39.1179H73.641" stroke="#2D64A2" stroke-width="2.5" stroke-linecap="round" stroke-linejoin="round"/>
<path d="M70.5641 46.2973H74.1333C75.0461 46.2973 75.9077 46.1434 76.7179 45.846C79.7025 44.7896 81.8461 41.9383 81.8461 38.5845" stroke="#2D64A2" stroke-width="2.5" stroke-linecap="round" stroke-linejoin="round"/>
<path d="M67.4872 52.4511H70.1128C73.7641 52.4511 76.718 49.4972 76.718 45.8459" stroke="#2D64A2" stroke-width="2.5" stroke-linecap="round" stroke-linejoin="round"/>
<path d="M22.359 39.1179H17.2308C16.1538 39.1179 15.1179 38.9332 14.1538 38.5845C12.841 38.123 11.6615 37.3743 10.7077 36.4102C9.0359 34.7486 8 32.4307 8 29.8871H25.8256" stroke="#2D64A2" stroke-width="2.5" stroke-linecap="round" stroke-linejoin="round"/>
<path d="M14.1539 38.5845C14.1539 41.9383 16.2975 44.7896 19.2821 45.846C20.0923 46.1434 20.9539 46.2973 21.8667 46.2973H25.4359" stroke="#2D64A2" stroke-width="2.5" stroke-linecap="round" stroke-linejoin="round"/>
<path d="M19.282 45.8459C19.282 49.4972 22.2359 52.4511 25.8872 52.4511H28.5128" stroke="#2D64A2" stroke-width="2.5" stroke-linecap="round" stroke-linejoin="round"/>
<path d="M44.4102 43.2205C44.4102 48.0076 51.5896 48.0076 51.5896 43.2205" stroke="#2D64A2" stroke-width="2.5" stroke-linecap="round" stroke-linejoin="round"/>
<path d="M59.282 40.1436H55.1794L58.2564 36.041" stroke="#2D64A2" stroke-width="2.5" stroke-linecap="round" stroke-linejoin="round"/>
<path d="M36.7179 40.1436H40.8205L37.7435 36.041" stroke="#2D64A2" stroke-width="2.5" stroke-linecap="round" stroke-linejoin="round"/>
<path d="M57.0641 26.4334C58.4974 25.1206 60.4076 24.3206 62.5051 24.3206C66.9564 24.3206 70.5641 27.9282 70.5641 32.3795C70.5641 43.6616 60.2923 50.2872 60.5359 62.8231C60.6205 66.818 58.8641 67.8385 57.1923 67.8385C54.4769 67.8385 52.9641 65.1718 52.1769 57.8103C51.8512 54.7513 50.5051 51.9616 47.9974 51.9616C45.4897 51.9616 44.1435 54.7539 43.8179 57.8103C43.0333 65.1718 41.5205 67.8385 38.8025 67.8385C37.1307 67.8385 35.3769 66.818 35.4589 62.8231C35.7025 50.2872 25.4307 43.6616 25.4307 32.3795C25.4307 27.9282 29.0384 24.3206 33.4897 24.3206C35.5871 24.3206 37.4974 25.1206 38.9307 26.4334" stroke="#2D64A2" stroke-width="2.5" stroke-linecap="round" stroke-linejoin="round"/>
<path d="M59.9564 30.7666C58.0436 26.041 53.4102 22.7076 48 22.7076C42.5897 22.7076 37.9564 26.041 36.0436 30.7666" stroke="#2D64A2" stroke-width="2.5" stroke-linecap="round" stroke-linejoin="round"/>
</svg>
