<svg width="96" height="96" viewBox="0 0 96 96" fill="none" xmlns="http://www.w3.org/2000/svg">
<rect width="96" height="96" rx="19.2" fill="#D3E8FF"/>
<path d="M59.3102 26.3235C56.9258 22.5997 52.7505 20.1302 47.9997 20.1302C43.249 20.1302 39.0762 22.5997 36.6892 26.3235" stroke="#2D64A2" stroke-width="2.5" stroke-linecap="round" stroke-linejoin="round"/>
<path d="M26.3 41.8557C24.5736 37.9282 23.2265 34.1761 23.2265 30.4523C23.2265 25.3222 27.3864 21.1624 32.5165 21.1624C34.9861 21.1624 37.2285 22.1249 38.893 23.6965" stroke="#2D64A2" stroke-width="2.5" stroke-linecap="round" stroke-linejoin="round"/>
<path d="M69.6995 41.8557C69.5627 42.168 69.4208 42.4828 69.2789 42.7976" stroke="#2D64A2" stroke-width="2.5" stroke-linecap="round" stroke-linejoin="round"/>
<path d="M67.5448 46.5859C64.8687 52.4282 62.1953 58.7531 62.3346 66.007C62.4301 70.5746 60.4225 71.741 58.5129 71.741C55.4059 71.741 53.6769 68.6934 52.7789 60.2731C52.4073 56.7738 50.8667 53.5817 47.9997 53.5817C45.1327 53.5817 43.5947 56.7738 43.2206 60.2731C42.3225 68.6934 40.591 71.741 37.4866 71.741C35.5744 71.741 33.5668 70.5746 33.6648 66.007C33.8197 57.9635 30.5166 51.0605 27.5851 44.6943" stroke="#2D64A2" stroke-width="2.5" stroke-linecap="round" stroke-linejoin="round" stroke-dasharray="4 4"/>
<path d="M26.718 42.7976C26.5761 42.4828 26.4367 42.168 26.2974 41.8557" stroke="#2D64A2" stroke-width="2.5" stroke-linecap="round" stroke-linejoin="round"/>
<path d="M57.109 23.6939C58.7735 22.1249 61.016 21.1624 63.483 21.1624C68.6131 21.1624 72.7729 25.3222 72.7729 30.4523C72.7729 34.1761 71.4259 37.9256 69.6995 41.8557" stroke="#2D64A2" stroke-width="2.5" stroke-linecap="round" stroke-linejoin="round"/>
<path d="M79.9984 75.8699C68.6441 75.8699 78.9662 41.8557 69.6995 41.8557C55.233 45.9201 40.7665 45.9201 26.2974 41.8557C17.0307 41.8557 27.3528 75.8699 15.9984 75.8699" stroke="#2D64A2" stroke-width="2.5" stroke-linecap="round" stroke-linejoin="round"/>
</svg>
