<svg width="96" height="96" viewBox="0 0 96 96" fill="none" xmlns="http://www.w3.org/2000/svg">
<rect width="96" height="96" rx="19.2" fill="#D3E8FF"/>
<path d="M53.304 36.9781C54.144 36.2101 55.26 35.7421 56.487 35.7421C59.091 35.7421 61.2 37.8541 61.2 40.4551C61.2 47.0551 55.191 50.9311 55.332 58.2661C55.38 60.6031 54.354 61.2001 53.376 61.2001C51.786 61.2001 50.901 59.6401 50.442 55.3321C50.25 53.5441 49.464 51.9091 47.997 51.9091C46.53 51.9091 45.744 53.5411 45.552 55.3321C45.093 59.6401 44.208 61.2001 42.618 61.2001C41.64 61.2001 40.614 60.6031 40.662 58.2661C40.803 50.9341 34.794 47.0551 34.794 40.4551C34.794 37.8511 36.906 35.7421 39.507 35.7421C40.734 35.7421 41.85 36.2101 42.69 36.9781" stroke="#2D64A2" stroke-width="2.5" stroke-linecap="round" stroke-linejoin="round"/>
<path d="M54.996 39.513C53.877 36.75 51.168 34.8 48 34.8C44.832 34.8 42.126 36.75 41.007 39.513" stroke="#2D64A2" stroke-width="2.5" stroke-linecap="round" stroke-linejoin="round"/>
<path d="M48 80.4001C48 80.4001 19.2 68.4001 19.2 48.0001V24.0001C28.8 24.0001 40.8 22.8001 48 15.6001C55.2 22.8001 67.2 24.0001 76.8 24.0001V48.0001C76.8 68.4001 48 80.4001 48 80.4001Z" stroke="#2D64A2" stroke-width="2.5" stroke-linecap="round" stroke-linejoin="round"/>
<path d="M25.2 34.8V29.838C32.595 29.403 41.109 27.915 48 23.313C54.891 27.915 63.405 29.403 70.8 29.838V48C70.8 61.062 54.138 70.671 47.961 73.782C39.942 69.828 25.2 60.063 25.2 48V39.6" stroke="#2D64A2" stroke-width="2.5" stroke-linecap="round" stroke-linejoin="round"/>
</svg>
