<svg width="96" height="96" viewBox="0 0 96 96" fill="none" xmlns="http://www.w3.org/2000/svg">
<rect width="96" height="96" rx="19.2" fill="#D3E8FF"/>
<path d="M48 16C47.603 16 47.2089 16.0059 46.8148 16.0207" stroke="#2D64A2" stroke-width="2.5" stroke-linecap="round" stroke-linejoin="round"/>
<path d="M42.0563 16.5511C28.3704 19.12 17.7571 30.4059 16.1985 44.4266" stroke="#2D64A2" stroke-width="2.5" stroke-linecap="round" stroke-linejoin="round"/>
<path d="M16.0207 46.8148C16.0059 47.2089 16 47.603 16 48" stroke="#2D64A2" stroke-width="2.5" stroke-linecap="round" stroke-linejoin="round"/>
<path d="M74.0741 29.037C68.2489 21.1289 58.5748 16 48 16" stroke="#2D64A2" stroke-width="2.5" stroke-linecap="round" stroke-linejoin="round"/>
<path d="M74.0741 19.5555V29.037H64.5926" stroke="#2D64A2" stroke-width="2.5" stroke-linecap="round" stroke-linejoin="round"/>
<path d="M48 80C48.397 80 48.7911 79.9941 49.1852 79.9792" stroke="#2D64A2" stroke-width="2.5" stroke-linecap="round" stroke-linejoin="round"/>
<path d="M53.9437 79.4489C67.6326 76.877 78.2459 65.594 79.8045 51.5733" stroke="#2D64A2" stroke-width="2.5" stroke-linecap="round" stroke-linejoin="round"/>
<path d="M79.9792 49.1852C79.9941 48.7911 80 48.397 80 48" stroke="#2D64A2" stroke-width="2.5" stroke-linecap="round" stroke-linejoin="round"/>
<path d="M21.9259 66.963C27.7511 74.8711 37.4252 80 48 80" stroke="#2D64A2" stroke-width="2.5" stroke-linecap="round" stroke-linejoin="round"/>
<path d="M21.9259 76.4444V66.963H31.4074" stroke="#2D64A2" stroke-width="2.5" stroke-linecap="round" stroke-linejoin="round"/>
<path d="M55.1437 35.5289C56.2726 34.4948 57.7778 33.8637 59.4311 33.8637C62.9363 33.8637 65.7807 36.7052 65.7807 40.2133C65.7807 49.1022 57.6889 54.323 57.8785 64.1985C57.9437 67.3452 56.5629 68.1482 55.2444 68.1482C53.1052 68.1482 51.914 66.0474 51.2948 60.2459C51.037 57.837 49.9792 55.6356 48.0029 55.6356C46.0266 55.6356 44.9689 57.8341 44.7111 60.2459C44.0918 66.0474 42.9007 68.1482 40.7615 68.1482C39.4459 68.1482 38.0622 67.3452 38.1274 64.1985C38.317 54.323 30.2252 49.1022 30.2252 40.2133C30.2252 36.7082 33.0666 33.8637 36.5748 33.8637C38.2281 33.8637 39.7333 34.4948 40.8622 35.5289" stroke="#2D64A2" stroke-width="2.5" stroke-linecap="round" stroke-linejoin="round"/>
<path d="M57.4192 38.9422C55.9111 35.2207 52.2637 32.5926 47.9999 32.5926C43.7362 32.5926 40.0859 35.2178 38.5807 38.9422" stroke="#2D64A2" stroke-width="2.5" stroke-linecap="round" stroke-linejoin="round"/>
</svg>
