<svg width="24" height="24" viewBox="0 0 24 24" fill="none" xmlns="http://www.w3.org/2000/svg">
<path d="M16.7502 3.77291C18.183 4.60024 19.375 5.78744 20.208 7.21699C21.0411 8.64654 21.4863 10.2689 21.4997 11.9234C21.5131 13.5779 21.0941 15.2072 20.2842 16.65C19.4744 18.0929 18.3018 19.2992 16.8825 20.1495C15.4631 20.9999 13.8463 21.4648 12.1921 21.4983C10.5379 21.5318 8.9036 21.1326 7.45104 20.3404C5.99847 19.5482 4.77801 18.3903 3.91045 16.9814C3.0429 15.5725 2.55834 13.9615 2.50475 12.3078L2.5 12L2.50475 11.6922C2.55795 10.0515 3.03538 8.45263 3.89047 7.0514C4.74557 5.65016 5.94916 4.4944 7.38391 3.6968C8.81865 2.8992 10.4356 2.48697 12.0771 2.50031C13.7186 2.51365 15.3286 2.9521 16.7502 3.77291ZM12.0001 6.29994C11.7674 6.29998 11.5428 6.3854 11.369 6.54003C11.1951 6.69465 11.084 6.90771 11.0568 7.1388L11.0501 7.24996V12L11.0587 12.1245C11.0803 12.2893 11.1448 12.4455 11.2458 12.5776L11.3285 12.6726L14.1785 15.5227L14.2678 15.6006C14.4344 15.7298 14.6393 15.8 14.8502 15.8C15.061 15.8 15.2659 15.7298 15.4325 15.6006L15.5218 15.5217L15.6007 15.4324C15.7299 15.2658 15.8001 15.0609 15.8001 14.85C15.8001 14.6392 15.7299 14.4343 15.6007 14.2677L15.5218 14.1784L12.9501 11.6058V7.24996L12.9435 7.1388C12.9163 6.90771 12.8052 6.69465 12.6313 6.54003C12.4574 6.3854 12.2328 6.29998 12.0001 6.29994Z" fill="#C0DCFB" fill-opacity="0.7"/>
</svg>
