<svg width="48" height="49" viewBox="0 0 48 49" fill="none" xmlns="http://www.w3.org/2000/svg">
<rect width="48.0198" height="48" rx="8" transform="matrix(4.37114e-08 1 1 -4.37114e-08 0 0.980103)" fill="#D3E8FF"/>
<path d="M23.0496 32.6054L16.3802 25.9359C16.2587 25.8091 16.1635 25.6595 16.1001 25.4958C15.9666 25.171 15.9666 24.8068 16.1001 24.482C16.1635 24.3183 16.2587 24.1687 16.3802 24.0418L23.0496 17.3724C23.174 17.248 23.3216 17.1494 23.4841 17.0821C23.6466 17.0147 23.8208 16.9801 23.9967 16.9801C24.3519 16.9801 24.6926 17.1212 24.9437 17.3724C25.1949 17.6236 25.336 17.9642 25.336 18.3194C25.336 18.6747 25.1949 19.0153 24.9437 19.2665L20.5419 23.655L30.6661 23.655C31.0199 23.655 31.3592 23.7955 31.6093 24.0457C31.8595 24.2958 32 24.6351 32 24.9889C32 25.3427 31.8595 25.6819 31.6093 25.9321C31.3592 26.1822 31.0199 26.3228 30.6661 26.3228L20.5419 26.3228L24.9437 30.7113C25.0688 30.8353 25.168 30.9828 25.2357 31.1453C25.3034 31.3079 25.3383 31.4822 25.3383 31.6583C25.3383 31.8344 25.3034 32.0088 25.2357 32.1713C25.168 32.3339 25.0688 32.4814 24.9437 32.6054C24.8197 32.7304 24.6722 32.8296 24.5097 32.8974C24.3471 32.9651 24.1728 32.9999 23.9967 32.9999C23.8206 32.9999 23.6462 32.9651 23.4837 32.8974C23.3211 32.8296 23.1736 32.7304 23.0496 32.6054Z" fill="#2D64A2"/>
</svg>
