<svg width="48" height="49" viewBox="0 0 48 49" fill="none" xmlns="http://www.w3.org/2000/svg">
<rect x="48" y="0.980103" width="48.0198" height="48" rx="8" transform="rotate(90 48 0.980103)" fill="#D3E8FF"/>
<path d="M24.9504 32.6054L31.6198 25.9359C31.7413 25.8091 31.8365 25.6595 31.8999 25.4958C32.0334 25.171 32.0334 24.8068 31.8999 24.482C31.8365 24.3183 31.7413 24.1687 31.6198 24.0418L24.9504 17.3724C24.826 17.248 24.6784 17.1494 24.5159 17.0821C24.3534 17.0147 24.1792 16.9801 24.0033 16.9801C23.6481 16.9801 23.3074 17.1212 23.0563 17.3724C22.8051 17.6236 22.664 17.9642 22.664 18.3194C22.664 18.6747 22.8051 19.0153 23.0563 19.2665L27.4581 23.655L17.3339 23.655C16.9801 23.655 16.6408 23.7955 16.3907 24.0457C16.1405 24.2958 16 24.6351 16 24.9889C16 25.3427 16.1405 25.6819 16.3907 25.9321C16.6408 26.1822 16.9801 26.3228 17.3339 26.3228L27.4581 26.3228L23.0563 30.7113C22.9312 30.8353 22.832 30.9828 22.7643 31.1453C22.6966 31.3079 22.6617 31.4822 22.6617 31.6583C22.6617 31.8344 22.6966 32.0088 22.7643 32.1713C22.832 32.3339 22.9312 32.4814 23.0563 32.6054C23.1803 32.7304 23.3278 32.8296 23.4903 32.8974C23.6529 32.9651 23.8272 32.9999 24.0033 32.9999C24.1794 32.9999 24.3538 32.9651 24.5163 32.8974C24.6789 32.8296 24.8264 32.7304 24.9504 32.6054Z" fill="#2D64A2"/>
</svg>
